<?xml version="1.0" encoding="utf-8"?>
<!-- Generator: Adobe Illustrator 24.1.0, SVG Export Plug-In . SVG Version: 6.00 Build 0)  -->
<svg version="1.1" id="Calque_1" xmlns="http://www.w3.org/2000/svg" xmlns:xlink="http://www.w3.org/1999/xlink" x="0px" y="0px"
	 viewBox="0 0 70.87 70.87" style="enable-background:new 0 0 70.87 70.87;" xml:space="preserve">
<style type="text/css">
	.st0{fill:#294F49;}
	.st1{fill:#003D35;}
	.st2{fill:#78A399;}
	.st3{fill:#5A9489;}
	.st4{fill:#007B6C;}
	.st5{fill:#EF7E06;}
	.st6{fill:#498E69;}
	.st7{fill:#EA6032;}
	.st8{fill:none;}
	.st9{fill:none;stroke:#498E69;stroke-width:0;stroke-linecap:round;stroke-linejoin:round;}
	.st10{fill:none;stroke:#ABABAA;stroke-miterlimit:10;}
</style>
<g id="XMLID_467_">
	<path id="XMLID_486_" class="st0" d="M4.41,34.58c0.42-1.83,1.01-3.6,1.76-5.28l13.78,4.31c-0.25,0.81-0.43,1.66-0.52,2.51
		L4.41,34.58z"/>
	<path id="XMLID_485_" class="st1" d="M24.29,27.31c-0.68,0.54-1.3,1.14-1.86,1.8l-10.18-8.61c1.23-1.22,2.58-2.33,4.02-3.32
		L24.29,27.31z"/>
	<path id="XMLID_484_" class="st1" d="M27.64,25.39c-0.8,0.31-1.57,0.7-2.29,1.17l-6.89-10.72c1.48-0.83,3.03-1.53,4.65-2.09
		L27.64,25.39z"/>
	<path id="XMLID_483_" class="st2" d="M32.7,24.52l0.65-23.68c6.89,0.18,12.96,2.2,17.33,5.07L38.84,26.27
		C37.34,25.22,35.25,24.56,32.7,24.52z"/>
	<path id="XMLID_482_" class="st2" d="M58.91,12.95L41.87,28.69c-0.59-0.64-1.24-1.22-1.94-1.72L53.68,7.98
		C55.59,9.46,57.34,11.12,58.91,12.95z"/>
	<path id="XMLID_481_" class="st0" d="M19.37,37.49c0,0.87,0.09,1.74,0.25,2.58L3.76,43.26c-0.05-0.73-0.09-1.46-0.09-2.2
		c0-1.25,0.09-2.47,0.24-3.68h15.46V37.49z"/>
	<path id="XMLID_480_" class="st1" d="M21.64,30.15c-0.49,0.71-0.91,1.47-1.24,2.26l-13-5.55c0.89-1.57,1.91-3.04,3.06-4.41
		L21.64,30.15z"/>
	<path id="XMLID_479_" class="st3" d="M43.4,44.26l17.66,10.85c-1.27,1.84-2.72,3.54-4.32,5.09L41.83,46.32
		C42.42,45.69,42.95,45,43.4,44.26z"/>
	<path id="XMLID_478_" class="st0" d="M21.61,44.78c0.49,0.71,1.05,1.38,1.67,1.99L10.55,59.8c-1.33-1.57-2.5-3.27-3.47-5.1
		L21.61,44.78z"/>
	<path id="XMLID_477_" class="st2" d="M44.04,31.89c-0.37-0.78-0.82-1.52-1.34-2.21L61.1,15.8c1.35,1.95,2.5,4.05,3.43,6.27
		L44.04,31.89z"/>
	<path id="XMLID_476_" class="st4" d="M29.88,69.89l1.45-19.47c0.87,0.07,1.76,0.04,2.61-0.06l2.39,19.45
		c-1.24,0.13-2.49,0.21-3.77,0.21C31.66,70.02,30.77,69.97,29.88,69.89z"/>
	<path id="XMLID_475_" class="st0" d="M19.94,41.31c0.25,0.82,0.59,1.61,1,2.37L5.79,51.94c-0.74-1.83-1.3-3.76-1.66-5.76
		L19.94,41.31z"/>
	<path id="XMLID_474_" class="st4" d="M24.25,47.63c0.67,0.54,1.4,1.01,2.17,1.41l-8.68,16.87c-1.82-1.09-3.5-2.38-5.03-3.84
		L24.25,47.63z"/>
	<path id="XMLID_473_" class="st4" d="M35.22,50.14c0.83-0.19,1.65-0.46,2.43-0.81l8.14,18.09c-1.99,0.82-4.08,1.47-6.24,1.91
		L35.22,50.14z"/>
	<path id="XMLID_472_" class="st4" d="M27.59,49.56c0.79,0.31,1.62,0.55,2.46,0.69l-3.37,19.16c-2.14-0.44-4.18-1.13-6.12-2.02
		L27.59,49.56z"/>
	<path id="XMLID_471_" class="st3" d="M45.16,39.46c0.1-0.65,0.15-1.31,0.15-1.98c0-0.21,0-0.42-0.01-0.62l21.91-1.04
		c-0.03,2.35-0.28,4.65-0.76,6.86L45.16,39.46z"/>
	<path id="XMLID_470_" class="st3" d="M45.16,35.57c-0.12-0.85-0.34-1.69-0.63-2.49l21.19-7.66c0.67,2.22,1.12,4.54,1.33,6.92
		L45.16,35.57z"/>
	<path id="XMLID_469_" class="st3" d="M44.02,43.13c0.37-0.77,0.67-1.58,0.88-2.41l20.66,5.29c-0.7,2.19-1.61,4.27-2.71,6.25
		L44.02,43.13z"/>
	<path id="XMLID_468_" class="st4" d="M38.8,48.74c0.75-0.43,1.45-0.94,2.1-1.51L54.26,62.4c-1.71,1.37-3.55,2.58-5.5,3.61
		L38.8,48.74z"/>
</g>
</svg>
