<?xml version="1.0" encoding="utf-8"?>
<!-- Generator: Adobe Illustrator 24.1.0, SVG Export Plug-In . SVG Version: 6.00 Build 0)  -->
<svg version="1.1" id="Calque_1" xmlns="http://www.w3.org/2000/svg" xmlns:xlink="http://www.w3.org/1999/xlink" x="0px" y="0px"
	 viewBox="0 0 356.33 124.5" style="enable-background:new 0 0 356.33 124.5;" xml:space="preserve">
<style type="text/css">
	.st0{fill:#294F49;}
	.st1{fill:#003D35;}
	.st2{fill:#78A399;}
	.st3{fill:#5A9489;}
	.st4{fill:#007B6C;}
	.st5{fill:#EF7E06;}
	.st6{fill:#498E69;}
	.st7{fill:#EA6032;}
	.st8{fill:none;}
	.st9{fill:none;stroke:#498E69;stroke-width:0;stroke-linecap:round;stroke-linejoin:round;}
	.st10{fill:none;stroke:#ABABAA;stroke-miterlimit:10;}
</style>
<g id="XMLID_28_">
	<g id="XMLID_37_">
		<path id="XMLID_76_" class="st0" d="M173.84,45.89c0.48-2.08,1.15-4.08,2-5.98l15.62,4.88c-0.29,0.92-0.49,1.88-0.58,2.85
			L173.84,45.89z"/>
		<path id="XMLID_75_" class="st1" d="M196.38,37.65c-0.77,0.61-1.48,1.3-2.11,2.04l-11.53-9.76c1.4-1.38,2.92-2.64,4.55-3.76
			L196.38,37.65z"/>
		<path id="XMLID_74_" class="st1" d="M200.17,35.47c-0.9,0.35-1.78,0.8-2.6,1.32l-7.8-12.15c1.67-0.94,3.43-1.73,5.27-2.37
			L200.17,35.47z"/>
		<path id="XMLID_3_" class="st2" d="M205.91,34.49l0.74-26.83c7.81,0.2,14.68,2.49,19.64,5.74l-13.42,23.06
			C211.17,35.28,208.8,34.53,205.91,34.49z"/>
		<path id="XMLID_71_" class="st2" d="M235.61,21.38L216.3,39.21c-0.67-0.72-1.41-1.38-2.2-1.95l15.59-21.52
			C231.85,17.41,233.84,19.3,235.61,21.38z"/>
		<path id="XMLID_70_" class="st0" d="M190.8,49.18c0,0.99,0.1,1.97,0.29,2.92l-17.98,3.61c-0.06-0.82-0.1-1.65-0.1-2.49
			c0-1.41,0.1-2.8,0.27-4.17h17.52V49.18z"/>
		<path id="XMLID_69_" class="st1" d="M193.37,40.87c-0.55,0.8-1.03,1.66-1.41,2.56l-14.73-6.29c1-1.77,2.16-3.45,3.47-5
			L193.37,40.87z"/>
		<path id="XMLID_56_" class="st3" d="M218.03,56.86l20.02,12.3c-1.44,2.08-3.08,4.01-4.89,5.77l-16.9-15.74
			C216.93,58.48,217.52,57.69,218.03,56.86z"/>
		<path id="XMLID_54_" class="st0" d="M193.34,57.45c0.55,0.81,1.19,1.57,1.89,2.25l-14.42,14.77c-1.51-1.78-2.83-3.71-3.94-5.78
			L193.34,57.45z"/>
		<path id="XMLID_53_" class="st2" d="M218.77,42.84c-0.42-0.88-0.93-1.72-1.52-2.5l20.86-15.74c1.53,2.21,2.83,4.59,3.89,7.1
			L218.77,42.84z"/>
		<path id="XMLID_52_" class="st4" d="M202.72,85.9l1.65-22.07c0.98,0.07,1.99,0.05,2.96-0.07l2.71,22.05
			c-1.4,0.15-2.83,0.23-4.27,0.23C204.74,86.05,203.72,86,202.72,85.9z"/>
		<path id="XMLID_51_" class="st0" d="M191.44,53.52c0.28,0.92,0.67,1.83,1.13,2.68l-17.16,9.36c-0.84-2.08-1.48-4.26-1.88-6.53
			L191.44,53.52z"/>
		<path id="XMLID_50_" class="st4" d="M196.33,60.67c0.76,0.61,1.59,1.15,2.46,1.59l-9.84,19.12c-2.06-1.24-3.97-2.7-5.7-4.35
			L196.33,60.67z"/>
		<path id="XMLID_48_" class="st4" d="M208.76,63.52c0.94-0.21,1.87-0.52,2.76-0.92l9.23,20.5c-2.26,0.93-4.62,1.66-7.07,2.16
			L208.76,63.52z"/>
		<path id="XMLID_45_" class="st4" d="M200.12,62.87c0.9,0.35,1.84,0.62,2.79,0.79l-3.82,21.71c-2.42-0.5-4.74-1.28-6.93-2.29
			L200.12,62.87z"/>
		<path id="XMLID_44_" class="st3" d="M220.03,51.42c0.11-0.73,0.17-1.49,0.17-2.24c0-0.24-0.01-0.47-0.02-0.7l24.83-1.18
			c-0.03,2.67-0.32,5.27-0.86,7.78L220.03,51.42z"/>
		<path id="XMLID_43_" class="st3" d="M220.04,47.01c-0.14-0.96-0.38-1.91-0.71-2.82l24.02-8.68c0.76,2.52,1.27,5.14,1.51,7.85
			L220.04,47.01z"/>
		<path id="XMLID_39_" class="st3" d="M218.74,55.58c0.42-0.87,0.76-1.79,1-2.73l23.41,5.99c-0.79,2.48-1.83,4.84-3.08,7.08
			L218.74,55.58z"/>
		<path id="XMLID_38_" class="st4" d="M212.82,61.93c0.84-0.49,1.65-1.06,2.38-1.71l15.14,17.2c-1.94,1.55-4.02,2.93-6.23,4.1
			L212.82,61.93z"/>
	</g>
	<g>
		<path class="st5" d="M303.68,100.92h-0.05c-0.09,0.67-0.27,1.89-0.47,2.73l-0.78,3.42h2.58l-0.8-3.42
			C303.97,102.81,303.77,101.6,303.68,100.92z"/>
		<path class="st5" d="M240.5,100.92h-0.05c-0.09,0.67-0.27,1.89-0.47,2.73l-0.78,3.42h2.58l-0.8-3.42
			C240.79,102.81,240.59,101.6,240.5,100.92z"/>
		<path class="st5" d="M231.17,100.36h-1.44v4.62h1.42c1.29,0,1.96-0.84,1.96-2.35C233.12,101.12,232.45,100.36,231.17,100.36z"/>
		<path class="st5" d="M168.28,93.02v23.82h170V93.02H168.28z M180.06,111.58c-2.26,0-3.71-1.4-3.73-3.73h1.87
			c0.02,1.31,0.73,1.95,1.86,1.95c1.22,0,1.82-0.73,1.82-1.75c0-2.53-5.33-2.67-5.33-6.46c0-1.84,1.35-3.22,3.49-3.22
			c2.18,0,3.49,1.4,3.55,3.57h-1.87c-0.04-1.22-0.67-1.8-1.66-1.8c-1.04,0-1.64,0.58-1.64,1.49c0,2.49,5.35,2.49,5.35,6.44
			C183.77,109.96,182.44,111.58,180.06,111.58z M191.55,111.34l-3.11-5.57l-0.84,1.25v4.31h-1.82V98.61h1.82v5.53l0.84-1.49
			l2.55-4.04h2.15l-3.64,5.55l4.17,7.18H191.55z M197.06,111.34h-1.84V98.61h1.84V111.34z M206.01,111.34h-6.06V98.61h1.84v10.99
			h4.22V111.34z M213.83,111.34h-6.06V98.61h1.84v10.99h4.22V111.34z M226.06,100.36h-2.66v10.99h-1.87v-10.99h-2.64v-1.75h7.17
			V100.36z M233.45,111.34l-2.57-4.62h-1.15v4.62h-1.84V98.61h3.29c2.44,0,3.82,1.46,3.82,3.98c0,1.98-0.84,3.35-2.29,3.87
			l2.76,4.88H233.45z M242.76,111.34l-0.6-2.56h-3.36l-0.58,2.56h-1.93l3.2-12.73h1.98l3.2,12.73H242.76z M248.29,111.34h-1.84
			V98.61h1.84V111.34z M258.73,111.34h-1.84l-2.84-6.24c-0.38-0.95-0.91-2.27-1.22-3.09l-0.05,0.04c0.13,1.27,0.22,3.18,0.22,4.38
			v4.91h-1.82V98.61h1.84l2.93,6.49c0.38,0.85,0.85,2.04,1.16,2.8l0.05-0.04c-0.15-1.25-0.25-3.17-0.25-4.29v-4.97h1.82V111.34z
			 M263.47,111.34h-1.84V98.61h1.84V111.34z M273.91,111.34h-1.84l-2.84-6.24c-0.38-0.95-0.91-2.27-1.22-3.09l-0.05,0.04
			c0.13,1.27,0.22,3.18,0.22,4.38v4.91h-1.82V98.61h1.84l2.93,6.49c0.38,0.85,0.86,2.04,1.16,2.8l0.05-0.04
			c-0.15-1.25-0.25-3.17-0.25-4.29v-4.97h1.82V111.34z M283.98,107.65c-0.04,2.49-1.47,3.89-3.76,3.89s-3.77-1.4-3.77-3.98v-5.18
			c0-2.58,1.42-3.96,3.73-3.96c2.25,0,3.62,1.36,3.71,3.87h-1.82c-0.07-1.47-0.73-2.11-1.89-2.11s-1.86,0.67-1.86,2.22v5.17
			c0,1.55,0.73,2.22,1.91,2.22c1.22,0,1.95-0.67,1.95-2.13v-1.6h-2.02v-1.64h3.82V107.65z M294.99,111.56
			c-2.24,0-3.69-1.4-3.69-3.97v-5.24c0-2.58,1.44-3.98,3.67-3.98c2.31,0,3.67,1.38,3.78,3.91h-1.82c-0.11-1.49-0.76-2.17-1.98-2.17
			c-1.07,0-1.78,0.71-1.78,2.24v5.24c0,1.51,0.71,2.22,1.82,2.22c1.24,0,1.89-0.69,2.02-2.15h1.82
			C298.7,110.18,297.33,111.56,294.99,111.56z M305.93,111.34l-0.6-2.56h-3.36l-0.58,2.56h-1.93l3.2-12.73h1.98l3.2,12.73H305.93z
			 M319.59,111.34h-1.8v-4.97c0.04-1.46,0.07-2.78,0.15-4.11l-0.07-0.04c-0.36,1.02-0.8,2.18-1.24,3.35l-1.11,2.89h-1.82l-1.11-2.89
			c-0.44-1.16-0.87-2.33-1.24-3.35l-0.07,0.04c0.05,1.33,0.11,2.66,0.15,4.11v4.97h-1.8V98.61h1.87l2.15,5.17
			c0.29,0.73,0.73,1.95,0.93,2.53h0.07c0.2-0.58,0.64-1.8,0.93-2.53l2.15-5.17h1.87V111.34z M325.86,106.87h-1.53v4.47h-1.84V98.61
			h3.36c2.49,0,3.91,1.51,3.91,4.11C329.77,105.4,328.36,106.87,325.86,106.87z"/>
		<path class="st5" d="M325.85,100.36h-1.51v4.77h1.51c1.38,0,2.05-0.76,2.05-2.4C327.9,101.16,327.23,100.36,325.85,100.36z"/>
	</g>
	<path id="XMLID_33_" class="st4" d="M55.12,21.25V33.6H30.44v12.38h18.51v12.34H30.44v12.34v12.38H18.06V58.32V45.98V21.25H55.12z"
		/>
	<path id="XMLID_26_" class="st4" d="M108.47,30.15c6.13,6.13,9.2,13.49,9.2,22.08s-3.07,15.94-9.2,22.04
		c-6.13,6.09-13.49,9.16-22.08,9.16s-15.94-3.07-22.04-9.16c-6.09-6.09-9.16-13.45-9.16-22.04s3.07-15.94,9.16-22.08
		c6.09-6.13,13.45-9.2,22.04-9.2S102.34,24.01,108.47,30.15z M73.17,38.92c-3.64,3.68-5.48,8.09-5.48,13.22
		c0,5.17,1.84,9.58,5.48,13.22c3.64,3.64,8.05,5.48,13.22,5.48c5.14,0,9.54-1.84,13.22-5.48c3.68-3.64,5.52-8.05,5.52-13.22
		c0-5.14-1.84-9.54-5.52-13.22c-3.68-3.68-8.09-5.52-13.22-5.52C81.22,33.4,76.81,35.24,73.17,38.92z"/>
	<path id="XMLID_22_" class="st4" d="M124.16,21.18h20.08c5.94,0,11.81,2.07,16.06,6.32c4.25,4.25,5.98,8.24,5.98,14.18v1.92
		c0,4.6-1.3,7.97-3.91,11.65c-2.61,3.68-4.79,4.75-8.85,6.29l13.95,21.5h-15.1l-15.79-24.15v24.15H124.2L124.16,21.18z M145.4,50.96
		c2.57,0,3.87-0.65,5.67-2.45c1.8-1.8,2.45-3.87,2.45-6.44c0-2.53-0.65-4.22-2.45-6.06c-1.8-1.84-5.02-2.49-7.59-2.49h-6.94v17.4
		L145.4,50.96z"/>
	<path id="XMLID_19_" class="st4" d="M252.28,64.49V42.87V21.25h12.38h9.24c5.94,0,11.04,2.11,15.29,6.36s6.36,9.35,6.36,15.29
		c0,5.94-2.11,11.04-6.36,15.25c-4.25,4.22-9.35,6.32-15.29,6.32h-9.24v18.55h-12.38V64.49z M273.89,52.18
		c2.57,0,4.75-0.92,6.55-2.72c1.8-1.8,2.72-3.99,2.72-6.55c0-2.53-0.92-4.71-2.72-6.55c-1.8-1.84-3.99-2.76-6.55-2.76h-9.24v9.28
		v9.28L273.89,52.18z"/>
	<path id="XMLID_17_" class="st4" d="M337.99,21.25V33.6H313.3v12.38h18.51v12.34H313.3v12.34h24.68v12.38H313.3h-12.38V21.25
		H337.99z"/>
</g>
</svg>
