<?xml version="1.0" encoding="utf-8"?>
<!-- Generator: Adobe Illustrator 24.1.0, SVG Export Plug-In . SVG Version: 6.00 Build 0)  -->
<svg version="1.1" id="Calque_1" xmlns="http://www.w3.org/2000/svg" xmlns:xlink="http://www.w3.org/1999/xlink" x="0px" y="0px"
	 viewBox="0 0 415 454" style="enable-background:new 0 0 415 454;" xml:space="preserve">
<style type="text/css">
	.st0{fill:#FFC08D;}
	.st1{fill:#235D8C;}
	.st2{fill:#FC4129;}
	.st3{fill:#FF573B;}
	.st4{fill:#FFCB99;}
	.st5{fill:#FFB680;}
	.st6{fill:#D44700;}
	.st7{fill:#C43C00;}
	.st8{fill:#E25314;}
	.st9{fill:#F49267;}
	.st10{fill:#EA805C;}
	.st11{fill:#F9F9F9;}
	.st12{fill:#282828;}
	.st13{fill:none;}
	.st14{fill:#EF2200;}
	.st15{fill:#D31E00;}
	.st16{fill:#3F3F3F;}
	.st17{fill:#333333;}
	.st18{fill:#FFAC27;}
	.st19{fill:#F99F00;}
	.st20{fill:#EF9900;}
	.st21{fill:#326799;}
	.st22{fill:#294C72;}
	.st23{fill:#643614;}
	.st24{fill:#FFFFFF;}
	.st25{fill:#72401F;}
	.st26{fill:#F4A178;}
	.st27{fill:#8E0707;}
	.st28{fill:#7C0505;}
	.st29{fill:#EFEFEF;}
</style>
<g>
	<path class="st0" d="M397.11,153.6c-0.34-0.55-0.92-0.86-1.52-0.89c0,0,0,0,0,0c-0.73-0.18-0.52-0.63-0.52-0.63l0.23-0.14
		c0.88-0.54,1.15-1.69,0.61-2.57c-0.5-0.81-1.52-1.1-2.37-0.71c0,0,0-0.01,0-0.01c-0.56,0.16-0.36-0.38-0.36-0.38l0.13-0.08
		c0.88-0.54,1.15-1.69,0.61-2.56c-0.4-0.65-1.14-0.97-1.85-0.87c-0.58-0.07-0.67-0.55-0.65-0.93c0.05-0.16,0.08-0.32,0.08-0.48
		c0,0,0-0.01,0-0.01c0.01-0.35-0.08-0.7-0.27-1.02c-0.54-0.88-1.69-1.15-2.56-0.61c0,0-4.02,1.65-4.81,2.1
		c-0.14,0.08-0.29,0.17-0.44,0.27c-0.43,0.25-0.26,0.41-0.43,0.25c-0.23-0.21,0.18-4.45-1.99-7.54c-0.53-0.75-1.48-1.05-2.27-0.59
		c-0.01,0-0.02,0.01-0.02,0.02c-0.77,0.47-0.97,1.45-0.56,2.25c0.46,0.9,0.51,1.53,0.34,2.55c-0.05,0.28-0.2,0.56-0.29,0.88
		c-0.36,1.24-2.21,5.66-2.76,6.86l0,0c-0.31,0.54-0.45,1.15-0.79,2.08c-0.54,1.48-4.82,4.3-7.82,6.15
		c-11.35,5.18-23.25,10.24-23.25,10.24l6.88,8.47l3.8,2.88c0,0,10.41-7.08,18.82-12.68c5.11-2.81,9.19-3.89,12-3.75
		c1.96,0.1,5.1-1.85,7.43-3.53l4.01-2.46C397.37,155.62,397.65,154.48,397.11,153.6z"/>
	<g>
		<polygon class="st0" points="296.57,393.89 296.55,408.4 283.2,408.4 284.06,393.89 283.73,390.96 296.88,390.96 		"/>
		<path class="st1" d="M306.51,214.55l2.42,11.96c3.17,15.68,0.86,27.68-1.7,47.68c-1.28,10.03-5.99,40-5.99,40
			c-0.88,4.53-1.28,9.16-1.18,13.8l0.5,22.68c0.1,4.61-0.21,9.23-0.93,13.77l-2.75,27.93h-13.15l-2.99-28.16
			c-0.62-7.19-0.72-14.43-0.3-21.64l0.63-10.87c0.16-2.74,0.05-5.49-0.33-8.2c-0.61-4.4-0.52-8.9,0.28-13.26
			c0.19-1.08,0.29-2.18,0.29-3.28l-1.84-47.96c0-3.26-0.47-5.91-3.32-5.91l-4.12-4.35l0.46-31.65l3.68-2.52H306.51z"/>
	</g>
	<g>
		<polygon class="st2" points="308.5,121.25 275.99,116.1 265.7,124.62 264.35,194.8 275.99,196.15 304.98,196.15 		"/>
		<polygon class="st3" points="243.48,121.25 247,196.15 275.99,196.15 275.99,116.1 		"/>
	</g>
	<g>
		<path class="st2" d="M337.84,179.96l-16.49-47.74c-1.56-5.87-6.81-10.71-13.71-11.91c-9.17-1.59-17.76,3.86-19.21,12.18
			c-1.13,6.52,1.64,10.76,8.34,12.11c6.69,1.35,12.7,8.45,13.71,10.94l11.33,29.74c1.56,4.46,6.43,6.82,10.9,5.27
			C337.05,189.05,339.35,184.3,337.84,179.96z"/>
		<path class="st2" d="M300.74,134.62c-0.41,2.37,1.18,4.62,3.54,5.03c2.37,0.41,4.62-1.18,5.03-3.54c0.41-2.37-1.18-4.62-3.54-5.03
			C303.4,130.67,301.15,132.26,300.74,134.62z"/>
	</g>
	<g>
		<g>
			<path class="st2" d="M345.64,165.41l-19.98,9.84c-1.96,0.97-3.45,2.67-4.15,4.74c-0.71,2.07-0.55,4.33,0.42,6.29l0.04,0.08
				c1,2.02,2.77,3.54,4.9,4.23c2.14,0.69,4.67,0.56,6.66-0.48l30.1-16.13l-6.92-14.01L345.64,165.41z"/>
			<path class="st2" d="M330.98,186.3c1.9-0.94,2.68-3.25,1.74-5.15c-0.94-1.91-3.25-2.69-5.16-1.74c-1.9,0.94-2.68,3.25-1.73,5.16
				C326.77,186.47,329.08,187.25,330.98,186.3z"/>
			<path class="st2" d="M347.19,163.02c-0.08,0.04-0.14,0.12-0.16,0.21c-0.02,0.09,0.01,0.19,0.07,0.25l11.92,13.21
				c0.36,0.4,0.95,0.51,1.43,0.26l3.51-1.79c0.59-0.3,0.82-1.02,0.52-1.61l-7.31-14.29c-0.15-0.29-0.4-0.5-0.7-0.6
				c-0.3-0.1-0.63-0.07-0.91,0.07L347.19,163.02z"/>
		</g>
	</g>
	<g>
		<g>
			<g>
				<path class="st3" d="M227.64,186.7l2.5-50.45c-0.14-6.08,3.55-12.19,9.84-15.27c8.36-4.08,18.13-1.25,21.84,6.33
					c2.9,5.94,1.44,10.79-4.63,13.96c-6.05,3.16-9.83,11.67-10.1,14.34l-2.58,31.72c-0.25,4.72-4.27,8.35-8.99,8.1
					C230.94,195.2,227.41,191.29,227.64,186.7z"/>
				<path class="st3" d="M251.11,133.31c1.06,2.16,0.16,4.76-2,5.82c-2.16,1.05-4.77,0.16-5.82-2c-1.06-2.16-0.16-4.76,2-5.82
					C247.45,130.26,250.05,131.15,251.11,133.31z"/>
			</g>
		</g>
		<g>
			<path class="st4" d="M228.77,284.51c1.09-0.1,1.53-1.94,1.43-3.03l0-4.5c-0.05-1.11-0.04-5.76,0.48-8.15
				c0.28-1.27,1.26-6.04,2.08-7.12l-0.11,8.01c-0.06,1.09,0.55,2.22,1.64,2.28c1.09,0.07,1.47-0.75,1.73-2.05
				c0.4-2.01,0.69-5.96,1.14-8.1c0.07-0.35,0.48-2.17,0.6-2.57c1.77-5.82-0.82-11.27-0.88-13.84c-0.04-1.77,5.26-31.32,5.26-31.32
				l-3.79-2.08l-9.55-2.57c0,0,0.58,33.99-0.71,42.05c-0.76,4.79-1.46,8.06-1.9,9.94l-0.78,2.39c-0.05,0.16-0.09,0.33-0.09,0.49
				c0,0.1,0,0.2,0.01,0.3l1.69,18.08C227.12,283.81,227.68,284.6,228.77,284.51z"/>
			<path class="st0" d="M233.53,269.49c0,0,0.91-0.5,2.03,0.05c-0.01,0.55,0.08,1.89-1.14,1.98
				C233.13,271.61,233.54,269.68,233.53,269.49z"/>
			<g>
				<path class="st3" d="M226.79,209.4l0.86-22.25c0.08-2.18,1.03-4.24,2.64-5.72c1.6-1.48,3.73-2.27,5.91-2.18l0.09,0
					c2.24,0.09,4.35,1.09,5.85,2.76c1.5,1.67,2.42,4.04,2.27,6.28l-2.48,34.06l-15.61-0.62L226.79,209.4z"/>
				<path class="st3" d="M240.41,188.03c-0.09,2.12-1.88,3.77-4,3.68c-2.12-0.08-3.78-1.87-3.69-4c0.09-2.12,1.88-3.77,4-3.68
					C238.85,184.11,240.5,185.91,240.41,188.03z"/>
				<path class="st3" d="M243.05,217.55l-16.92-5.51c-0.09-0.03-0.18-0.01-0.26,0.04c-0.08,0.05-0.12,0.14-0.13,0.23l-0.5,9.4
					c-0.03,0.66,0.47,1.22,1.13,1.26l16.04,0.85c0.32,0.02,0.63-0.09,0.87-0.31c0.23-0.21,0.38-0.51,0.39-0.83l0.21-3.93
					C243.9,218.21,243.57,217.72,243.05,217.55z"/>
			</g>
		</g>
	</g>
	<g>
		<path class="st0" d="M266.19,101.16l-0.29,8.68c-0.03,0.9-0.79,2.57-1.44,3.2c-2.43,2.34-3.49,4.12-11.42,5.57
			c-2.35,0.43-0.49,4.75,0.95,6.66c3.75,4.97,15.86,7.89,22.09,7.89l4.78-16.73h0.01l-4.78-15.28H266.19z"/>
		<path class="st5" d="M285.89,101.16l0.3,8.68c0.03,0.9,0.79,2.57,1.43,3.2c2.43,2.34,3.49,4.12,11.42,5.57
			c2.35,0.43,0.49,4.75-0.95,6.66c-3.75,4.97-15.86,7.89-22.09,7.89l-0.01-32.01H285.89z"/>
	</g>
	<g>
		<g>
			<path class="st6" d="M252.93,87.71c1.47-1.57,0.97-3.58,0.18-5.29c-1.21-2.64-0.28-4.99,1.74-6.65c0.17-0.12,1.46-1.04,1.83-2.68
				c0.4-1.76-0.91-3.77-1.06-6.17c-0.15-2.4-0.63,3.58-0.63,3.58s1.37,3.12-0.69,4.73c0,0,0,0.01,0,0.01
				c-2.12,1.74-3.2,4.34-2.06,7.04c0.69,1.64,1.59,3.42,0.38,5.02c-1.22,1.62-1.09,3.16,0.32,4.8c0.17,0.2,0.37,0.4,0.6,0.51
				C252.36,91.31,251.63,89.08,252.93,87.71z"/>
			<path class="st7" d="M298.5,68.15c0,0-3,0.76-2.21,4.42c0.78,3.66,3.82,4.5,2.56,7.37c1.08-1.67,0.78-2.46-1.27-5.75
				c-2.04-3.29,1.62-5.76,1.62-5.76L298.5,68.15z"/>
			<path class="st7" d="M292.79,90.87c0,0-0.82,2.01,0.09,5.2c0.92,3.19,3.66,3.75,2.72,6.37c0.67-1.89,0.27-2.61-1.2-4.63
				c-2.03-2.78,0.11-6.93,0.11-6.93H292.79z"/>
			<path class="st6" d="M262.6,96.19c0,0-0.83,2.01,0.09,5.2c0.92,3.19,3.66,3.75,2.72,6.37c0.67-1.89,0.27-2.61-1.21-4.63
				c-2.02-2.78,0.11-6.93,0.11-6.93H262.6z"/>
			<path class="st6" d="M261.47,92.6c0,0-1.18,1.82-0.87,5.13c0.32,3.31,2.9,4.36,1.5,6.76c1.01-1.73,0.75-2.51-0.33-4.78
				c-1.48-3.1,1.38-6.79,1.38-6.79L261.47,92.6z"/>
			<path class="st6" d="M255.27,74.03c0,0-0.55,2.1-3.2,4.1c-2.65,2-5.18,0.8-6,3.45c0.6-1.91,1.35-2.25,3.75-2.98
				c3.29-1,4.08-5.6,4.08-5.6L255.27,74.03z"/>
			<path class="st7" d="M290.59,103.31c-0.89-3.37,0.92-6.61,0.06-9.98c-0.1-0.37-0.25-0.7-0.41-1c-0.17-0.47-0.41-0.92-0.75-1.28
				c-1.14-1.21-2.34-1.43-2.41-4.19c0.03-0.16,0.05-0.31,0.09-0.47c0.04-0.17-3.6-3.12-3.57-3.27c-0.02,0.1,0.58,0.6,0.81,0.98
				c0.48,0.8,0.9,1.65,1.23,2.53c0.3,0.77,0.69,1.71,1.08,2.37c0,0,0,0-0.01,0l0.01,0c0.18,0.32,0.44,0.64,0.78,0.94
				c1.72,1.53,2.57,3.2,2.54,4.48c0,0.08,0,0.15,0,0.23c0,0.05,0,0.1,0,0.14c-0.08,1.95-0.67,4-0.37,6.03
				c0.75,5.14,2.56,6.34,2.76,6.6C291.5,106.2,290.97,104.76,290.59,103.31z"/>
			<g>
				<path class="st6" d="M250.76,58.31c-0.86,7.63,4.52,20.42,4.52,20.42s10.32,0.57,20.62,0.74V48.79
					C266.56,49.37,251.41,52.56,250.76,58.31z"/>
				<path class="st7" d="M282.48,49.06c-1.09-0.37-3.53-0.46-6.58-0.27v30.68c9.66,0.16,19.3-0.04,20.34-1.39
					c2.15-2.79,4.24-10.1,4.56-17.3C301.12,53.58,286.88,50.57,282.48,49.06z"/>
			</g>
			<path class="st5" d="M295.02,77.42l2.05-1.4c0.36-0.24,0.8-0.31,1.21-0.19c0.42,0.12,0.75,0.42,0.92,0.81
				c0.88,2.05,1,4.34,0.34,6.46l-0.48,1.55c-0.23,2.06-0.47,2.9-1.56,3.86l-0.31,0.14c-0.43,0.2-0.94,0.13-1.31-0.18l-1.5-1.25
				L295.02,77.42z"/>
			<path class="st0" d="M256.7,77.42l-2.05-1.4c-0.36-0.24-0.8-0.31-1.21-0.19c-0.42,0.12-0.75,0.42-0.92,0.81
				c-0.88,2.05-1,4.34-0.34,6.46l0.48,1.55c0.24,2.06,0.47,2.9,1.56,3.86l0.31,0.14c0.44,0.2,0.95,0.13,1.31-0.18l1.5-1.25
				L256.7,77.42z"/>
			<path class="st8" d="M260.97,105.22c-1.11-1.35-0.58-2.96,0.15-4.3c1.13-2.07,0.52-4.03-1.03-5.49c-0.13-0.1-1.12-0.93-1.33-2.28
				c-0.22-1.45,0.95-3,1.21-4.94c0.26-1.94,0.31,2.94,0.31,2.94s-1.29,2.45,0.29,3.87c0,0.01,0,0.01,0,0.01
				c1.62,1.54,2.34,3.7,1.26,5.83c-0.65,1.29-1.49,2.68-0.6,4.05c0.9,1.39,0.7,2.63-0.54,3.88c-0.15,0.15-0.33,0.3-0.52,0.38
				C261.22,108.17,261.94,106.4,260.97,105.22z"/>
			<path class="st6" d="M295.09,99.72c-1.39,0.14-2.24-0.92-2.81-2c-0.89-1.67-2.47-2.12-4.12-1.73c-0.13,0.04-1.11,0.34-2.11-0.12
				c-1.07-0.49-1.59-1.96-2.77-2.99c-1.18-1.03,2.1,1.09,2.1,1.09s1.07,1.94,2.72,1.51c0,0,0,0,0.01,0
				c1.74-0.41,3.48-0.74,4.43,0.92c0.57,1,1.12,2.73,2.43,2.74c1.32,0.01,2.1,0.93,2.4,2.31c0.03,0.17,0.06,0.35,0.03,0.51
				C297.17,100.85,296.3,99.59,295.09,99.72z"/>
			<g>
				<path class="st4" d="M276.09,43.87l2.96,33.96l2.25,14.58l-5.2,16.16h-1.43c-2.53,0-4.96-1.12-6.75-3.13l-7.97-8.91
					c-2.65-3.36-3.98-7.21-4.29-11.76c-0.52-7.68-1.39-30.4-1.39-30.4L276.09,43.87z"/>
				<path class="st0" d="M275.81,43.87l0.13,64.7h1.43c2.4,0,4.83-1.12,6.62-3.13l7.97-8.91c2.85-4.01,4.46-8.2,4.46-15.38
					c0-6.72,1.21-26.77,1.21-26.77L275.81,43.87z"/>
				<path class="st0" d="M272.08,90.87c-0.14,0.18-0.17,0.42-0.07,0.62c0.1,0.2,0.31,0.33,0.53,0.33h3.89v-2.51
					c-0.11,0.01-0.21,0.01-0.32,0.02C273.68,89.5,272.58,90.24,272.08,90.87z"/>
			</g>
			<path class="st7" d="M296.77,48.74c-3.42-4.26-9.42-7.22-14.58-8.59c1.83-0.54,2.19-1.26,2.1-1.86c2.06-1.13,3.77-2.85,4.06-5.64
				c0.71-6.96-10.83-8.24-12.43-8.29c-0.01,0-0.02,0-0.03,0l-3.43,2.54c-0.01,0-0.01,0-0.02,0l0.29,2.98l0.19,21.05l2.95,3.41
				c0.33,0.03,0.67,0.07,1.01,0.12c6.02,0.86,19.16,11.21,19.81,16.58C304.22,60.27,300.07,52.86,296.77,48.74z"/>
			<path class="st6" d="M275.89,24.35c-1.68-0.07-14.59-1.84-14.21,5.94c0.18,3.71,2.06,5.9,3.99,7.17
				c-0.06,0.2-0.09,0.42-0.07,0.68c0.05,0.61,0.52,1.09,1.2,1.46c-4.45,0.89-9.4,3.35-13.24,9.78c-7.31,12.26,1.29,21.07,1.29,21.07
				s3.35-9.7,7-12.49c3.45-2.64,8.42-4.2,14.03-3.64V40.98c0,0,0.01,0,0.01,0V24.35z"/>
			<g>
				<path class="st9" d="M269.58,96.48c0.24,0.37,0.49,0.74,0.75,1.1c1.21,1.71,3.37,2.82,5.69,2.83c2.32,0.03,4.51-1.04,5.75-2.73
					c0.29-0.4,0.58-0.79,0.85-1.2C278.32,97.37,273.88,97.37,269.58,96.48z"/>
				<path class="st10" d="M277.89,96.45c-0.53-0.11-1.07-0.03-1.41,0.38c-0.09,0.11-0.24,0.18-0.39,0.18c-0.15,0-0.3-0.07-0.39-0.18
					c-0.33-0.4-0.88-0.49-1.41-0.38c-1.13,0.31-4.72,0.06-4.72,0.01c0.53,0.26,1.06,0.5,1.61,0.73c3.08,1.3,6.73,1.3,9.81,0
					c0.55-0.23,1.08-0.47,1.61-0.73C282.61,96.51,279.03,96.77,277.89,96.45z"/>
			</g>
			<g>
				<g>
					<path class="st11" d="M258.89,75.68c0,0,1.65,6.9,11.26,2.73C270.15,78.41,266.55,72.51,258.89,75.68z"/>
					<g>
						<g>
							<path class="st12" d="M261.85,77.1c0.05,1.38,1.21,2.46,2.59,2.41c1.38-0.05,2.46-1.21,2.41-2.59
								c-0.05-1.38-1.21-2.46-2.59-2.41C262.89,74.55,261.8,75.72,261.85,77.1z"/>
							<path class="st11" d="M262.94,76.52c0.02,0.41,0.36,0.73,0.78,0.72c0.41-0.01,0.74-0.36,0.72-0.78
								c-0.01-0.41-0.36-0.74-0.77-0.72C263.25,75.76,262.93,76.11,262.94,76.52z"/>
						</g>
					</g>
					<path class="st12" d="M258.63,75.84c-0.01,0.01-0.01,0.02-0.01,0.03c0.01,0.01,0.02,0.02,0.03,0.01
						c1.18-0.5,6.19-2.17,11.58,2.6c0.01,0.01,0.02,0.01,0.03,0c0.01-0.01,0.01-0.02,0-0.03C269.72,77.51,265.72,71.29,258.63,75.84
						z"/>
				</g>
				<g>
					<path class="st11" d="M292.47,75.68c0,0-1.65,6.9-11.26,2.73C281.21,78.41,284.8,72.51,292.47,75.68z"/>
					<g>
						<path class="st12" d="M284.51,76.92c-0.05,1.38,1.03,2.54,2.41,2.59c1.38,0.05,2.54-1.03,2.59-2.41
							c0.05-1.38-1.03-2.54-2.41-2.59C285.71,74.46,284.56,75.54,284.51,76.92z"/>
						<path class="st11" d="M285.63,76.42c-0.02,0.41,0.31,0.76,0.72,0.78c0.42,0.01,0.76-0.31,0.78-0.72
							c0.01-0.42-0.31-0.76-0.73-0.78C285.99,75.68,285.65,76.01,285.63,76.42z"/>
					</g>
					<path class="st12" d="M292.72,75.84c-7.08-4.54-11.08,1.67-11.63,2.61c-0.01,0.01,0,0.02,0,0.03c0.01,0.01,0.02,0.01,0.03,0
						c5.39-4.77,10.39-3.1,11.58-2.6c0.01,0.01,0.03,0,0.03-0.01C292.74,75.86,292.73,75.85,292.72,75.84z"/>
				</g>
			</g>
			<g>
				<g>
					<g>
						<path class="st6" d="M270.26,71.06c-0.6-0.86-2.87-2-5.17-2.32c-5.01-0.71-7.32,1.79-8.37,2.63c-0.03,0.02-0.03,0.07-0.01,0.1
							c0.02,0.03,0.07,0.05,0.1,0.03c4.75-3.47,10.54-1,12.83,0.25c0.19,0.11,0.43,0.07,0.58-0.1
							C270.36,71.48,270.38,71.23,270.26,71.06z"/>
					</g>
				</g>
				<g>
					<g>
						<path class="st7" d="M280.95,71.06c0.6-0.86,2.87-2,5.17-2.32c5.01-0.71,7.33,1.79,8.38,2.63c0.03,0.02,0.03,0.07,0.01,0.1
							c-0.02,0.03-0.07,0.05-0.1,0.03c-4.75-3.47-10.54-1-12.84,0.25c-0.19,0.11-0.43,0.07-0.58-0.1
							C280.84,71.48,280.82,71.23,280.95,71.06z"/>
					</g>
				</g>
			</g>
			<path class="st6" d="M295.76,71.84c-0.34-2.12-2.25-2.95-4.08-3.38c-2.83-0.65-4.12-2.82-4.21-5.43c0.01-0.2,0.06-1.79-1.01-3.08
				c-1.15-1.39-4.9-3.24-6.9-4.59c-1.99-1.35,0.7,1.49,0.7,1.49s6.38,2.85,6.44,6.29c0,0,0,0.01,0,0.01
				c0.09,2.75,1.49,5.18,4.33,5.92c1.72,0.45,3.68,0.82,4.21,2.76c0.54,1.96,1.85,2.79,4,2.67c0.26-0.02,0.55-0.05,0.77-0.17
				C298.27,74.48,296.05,73.69,295.76,71.84z"/>
			<path class="st8" d="M248.7,75.24c2.3-2.62,6-2.92,8.31-5.52c0.25-0.29,0.44-0.59,0.61-0.9c0.29-0.4,0.54-0.85,0.65-1.33
				c0.8-3.8,5.7-9.26,5.85-9.31c0.16-0.06-2.71,0.05-2.56,0c-0.1,0.04-0.17,0.81-0.36,1.22c-0.4,0.85-0.88,1.67-1.41,2.43
				c-0.48,0.68-1.03,1.53-1.37,2.22c0,0,0,0,0,0l0,0c-0.16,0.33-0.28,0.72-0.34,1.17c-0.31,2.28-1.22,3.91-2.3,4.61
				c-0.06,0.04-0.12,0.09-0.19,0.13c-0.04,0.02-0.09,0.05-0.12,0.08c-1.67,1.02-3.69,1.67-5.21,3.06c-3.84,3.49-3.83,5.67-3.94,5.97
				C246.8,77.61,247.7,76.37,248.7,75.24z"/>
			<path class="st6" d="M297.1,82.84c-0.89-3.37,0.92-6.61,0.06-9.98c-0.09-0.37-0.24-0.7-0.41-1c-0.17-0.47-0.41-0.92-0.75-1.28
				c-1.14-1.21-2.33-1.43-2.41-4.19c0.03-0.16,0.05-0.31,0.09-0.47c0.04-0.17-3.61-3.12-3.57-3.27c-0.03,0.1,0.58,0.6,0.81,0.98
				c0.48,0.8,0.89,1.65,1.23,2.53c0.3,0.77,0.69,1.71,1.08,2.37l0,0l0,0c0.19,0.32,0.44,0.63,0.78,0.94
				c1.72,1.53,2.57,3.2,2.54,4.48c0,0.07,0,0.15,0,0.23c0,0.05,0,0.1,0,0.14c-0.08,1.95-0.67,4-0.37,6.03
				c0.75,5.14,2.57,6.34,2.76,6.6C298.01,85.74,297.49,84.3,297.1,82.84z"/>
			<path class="st8" d="M274.2,53.09c-1.58-0.81-6.33-2.15-10-0.37c-3.67,1.78-3.34,4.45-5.62,5.63c-2.28,1.18-2.31,5.92-2.73,7.28
				c1.15-1.07,0.74-5.59,2.99-6.89c2.25-1.3,2.88-3.13,3.61-3.97c0.73-0.84,5.05-2.98,9.51-1.36
				C276.41,55.03,274.2,53.09,274.2,53.09z"/>
			<path class="st6" d="M276.44,53.17c0,0,2.86-1.53,6.16-0.43c3.3,1.1,1.82,3.1,5.57,4.24c2.04,0.62,4.79,5.2,4.68,5.3
				c-0.11,0.1-2.58-2.93-3.85-3.87c-1.27-0.94-3.48-0.5-4.63-3.14c-1.18-2.71-6.4-1.9-6.4-1.9L276.44,53.17z"/>
			<g>
				<path class="st6" d="M290.78,61.45c-2.12-1.83-4.48-3.58-6.28-4.9c-2.07-1.52-3.66-2.55-7.8-3.81c-0.3-0.09-0.6-0.16-0.9-0.23
					l-0.63,0.82l-0.21,1.55l0.84,0.77c3.09,0.34,6.1,1.81,8.65,3.42c2.91,1.84,5.04,4.41,6.28,5.06c3.78,1.99,6.54,6.02,5.96,9.98
					C298.86,69.16,295.39,65.43,290.78,61.45z"/>
				<path class="st8" d="M257.83,60.89c-1.51,2.46-4.71,11.73-2.71,14.06c0,0-0.15-7.07,4.14-12.13c2.44-2.86,4.97-4.32,8.79-5.51
					c2.13-0.67,5.18-1.92,7.56-1.69c0.06,0.01,0.12,0.02,0.19,0.03v-3.14c-2.58-0.55-5.05,1.19-7.67,1.53
					C263.24,54.66,259.26,58.58,257.83,60.89z"/>
			</g>
			<path class="st8" d="M264.19,56.72c-0.22,0-0.4-0.04-0.6-0.06c-0.36,0.72-0.76,1.59-0.98,2.29c0,0,0-0.01,0-0.01l0,0.01
				c-0.11,0.35-0.18,0.75-0.17,1.21c0.02,2.3-0.64,4.05-1.62,4.89c-0.06,0.05-0.11,0.1-0.17,0.15c-0.04,0.03-0.08,0.07-0.11,0.09
				c-1.5,1.25-3.41,2.18-4.72,3.77c-3.3,4.01-2.98,6.16-3.04,6.47c0.28-1.49,0.99-2.85,1.81-4.11c1.9-2.92,5.52-3.75,7.43-6.66
				c0.21-0.32,0.35-0.65,0.47-0.98c0.23-0.44,0.37-0.92,0.45-1.41c0.3-1.9-0.44-2.99,2.36-4.22c0.13-0.08-0.61-0.56-0.46-0.63
				c0.04-0.02,0.05-0.37,0.05-0.87C264.65,56.67,264.44,56.72,264.19,56.72z"/>
			<g>
				<path class="st13" d="M269.01,73.73l-10.54,0.02c-0.71,0-1.38,0.34-1.79,0.91c-0.42,0.57-0.54,1.31-0.33,1.98l1.86,5.4
					c0.66,2.12,2.59,3.54,4.8,3.54h5.92c0.97,0,1.85-0.62,2.17-1.54l2.1-5.4c0.34-0.98,0.19-2.08-0.4-2.94
					C271.93,74.46,270.52,73.73,269.01,73.73z"/>
				<path class="st13" d="M293.16,73.74l-10.54-0.02c-1.51,0-2.92,0.74-3.78,1.97c-0.6,0.85-0.75,1.95-0.4,2.94l2.1,5.4
					c0.32,0.92,1.19,1.54,2.17,1.54h5.92c2.22,0,4.15-1.42,4.8-3.54l1.86-5.4c0.21-0.67,0.08-1.41-0.33-1.98
					C294.53,74.08,293.86,73.74,293.16,73.74z"/>
				<path class="st14" d="M275.55,76.11c-0.48,0-0.94-0.19-1.28-0.54l-0.54-0.54c-1.07-1.54-2.84-2.46-4.71-2.46l-10.55,0.02
					c-0.9,0-1.77,0.37-2.4,1.01l0,0l-0.2,0.15c-0.27,0.21-0.61,0.32-0.95,0.32l-0.31-0.01c-0.1,0-0.2,0.04-0.27,0.11
					c-0.07,0.07-0.11,0.17-0.11,0.27v1.13c0,0.22,0.18,0.41,0.41,0.41h0.05c0.17,0,0.32,0.11,0.36,0.28l0.16,0.54v-0.01
					c0.02,0.06,0.03,0.12,0.04,0.18l1.86,5.05c0.81,2.6,3.17,4.34,5.9,4.34h5.92c1.46,0,2.77-0.92,3.25-2.3l2-4.8l0.1-0.18
					c0.31-0.56,0.9-0.91,1.54-0.93c0.02,0,0.04,0.01,0.07,0.01l1.71-1l-1.71-1.05H275.55z M273.19,78.63l-2.1,5.4
					c-0.32,0.92-1.19,1.54-2.17,1.54H263c-2.22,0-4.15-1.42-4.8-3.54l-1.86-5.4c-0.21-0.67-0.08-1.41,0.33-1.98
					c0.42-0.57,1.09-0.91,1.79-0.91l10.54-0.02c1.51,0,2.92,0.74,3.78,1.97C273.39,76.55,273.54,77.65,273.19,78.63z"/>
				<path class="st15" d="M297.28,74.18c-0.07-0.07-0.17-0.11-0.27-0.11l-0.31,0.01c-0.34,0-0.68-0.11-0.95-0.32l-0.2-0.15l0,0.01
					c-0.63-0.64-1.49-1.01-2.39-1.01l-10.55-0.02c-1.88,0-3.64,0.92-4.71,2.46l-0.54,0.54c-0.34,0.34-0.8,0.54-1.28,0.54h-0.2v2.06
					c0.61,0.04,1.17,0.37,1.47,0.92l0.1,0.18l2.01,4.8c0.48,1.38,1.79,2.3,3.25,2.3h5.92c2.72,0,5.09-1.74,5.89-4.34l1.86-5.05
					c0.02-0.06,0.03-0.12,0.04-0.17l0,0l0.15-0.54c0.05-0.16,0.2-0.28,0.37-0.28h0.05c0.23,0,0.41-0.18,0.41-0.41v-1.13
					C297.4,74.35,297.35,74.25,297.28,74.18z M295.28,76.63l-1.86,5.4c-0.66,2.12-2.59,3.54-4.8,3.54h-5.92
					c-0.97,0-1.85-0.62-2.17-1.54l-2.1-5.4c-0.35-0.98-0.2-2.08,0.4-2.94c0.86-1.23,2.27-1.97,3.78-1.97l10.54,0.02
					c0.7,0,1.37,0.34,1.79,0.91C295.37,75.22,295.49,75.96,295.28,76.63z"/>
			</g>
		</g>
		<g>
			<g>
				<polygon class="st16" points="275.82,60.59 250.08,60.59 250.08,52.45 275.82,52.45 278.94,56.69 				"/>
				<rect x="275.82" y="52.45" class="st17" width="25.74" height="8.15"/>
			</g>
			<g>
				<path class="st18" d="M275.32,22.27c-1.07,0-1.99-0.61-2.45-1.5c-0.15-0.29-0.25-0.61-0.29-0.94h-0.73
					c-1.57,0-2.99,0.68-3.98,1.75c-0.74,0.81-1.24,1.85-1.39,2.99c-10.17,3.19-15.4,11.84-16.59,22.5
					c-0.68,0.15-2.42,0.87-2.75,4.27c-0.06,0.54-0.08,1.14-0.04,1.83c0.11,0.23,0.25,0.45,0.39,0.65h8.1h10.45h0.39h7.43h0.53h1.41
					l5.25-11.73v-6.56l-5.25-13.25H275.32z"/>
				<path class="st19" d="M304.49,51.33c-0.35-3.5-2.19-4.16-2.82-4.28c-1.22-10.58-6.56-19.18-16.52-22.42
					c-0.13-1.14-0.61-2.18-1.34-3c-0.99-1.11-2.43-1.81-4.04-1.81h-0.73c-0.04,0.34-0.13,0.66-0.29,0.95
					c-0.46,0.88-1.38,1.5-2.45,1.5h-0.49h0v31.54h9.37h0.39h10.44h8.09c0.15-0.21,0.31-0.42,0.43-0.65
					C304.56,52.47,304.53,51.87,304.49,51.33z"/>
			</g>
			<g>
				<path class="st19" d="M247.87,53.33c-0.88,0-1.58,0.9-1.58,2.01c0,1.11,0.7,2,1.58,2h27.95l1.85-2.01l-1.85-2.01H247.87z"/>
				<path class="st20" d="M303.77,53.33h-27.95v4.01h27.95c0.87,0,1.58-0.9,1.58-2C305.35,54.23,304.64,53.33,303.77,53.33z"/>
			</g>
			<g>
				<path class="st20" d="M285.16,24.63c-0.13-1.14-0.61-2.18-1.34-3c-0.99-1.11-2.43-1.81-4.04-1.81h-0.73
					c-0.04,0.34-0.13,0.66-0.29,0.95c-0.46,0.88-1.38,1.5-2.45,1.5h-0.49h0l-2.83,15.27l2.83,13.77h9.34V24.63z"/>
				<path class="st19" d="M275.32,22.27c-1.07,0-1.99-0.61-2.45-1.5c-0.15-0.29-0.25-0.61-0.29-0.94h-0.73
					c-1.57,0-2.99,0.68-3.98,1.75c-0.74,0.81-1.24,1.85-1.39,2.99c0,0,0,0-0.01,0v26.74h9.33V22.27H275.32z"/>
			</g>
		</g>
	</g>
	<g>
		<polygon class="st1" points="300.6,139.81 275.99,139.81 268.2,139.81 267.18,212.68 275.99,213.7 300.59,213.7 		"/>
		<rect x="251.38" y="139.81" class="st21" width="24.61" height="73.88"/>
	</g>
	<g>
		<path class="st21" d="M254.81,119.22c0-0.33-0.15-0.64-0.41-0.84c-0.26-0.2-0.6-0.27-0.92-0.19l-2.9,0.76
			c-0.41,0.11-0.7,0.48-0.7,0.9v90.09h4.93V119.22z"/>
	</g>
	<g>
		<path class="st1" d="M297.14,119.22c0-0.33,0.15-0.64,0.41-0.84c0.26-0.2,0.6-0.27,0.92-0.19l2.9,0.76c0.41,0.11,0.7,0.48,0.7,0.9
			v90.09h-4.93V119.22z"/>
	</g>
	<polygon class="st21" points="275.99,226.92 243.48,226.92 247,196.15 275.99,196.15 278.6,201.7 278.6,211.18 	"/>
	<polygon class="st1" points="275.99,226.92 308.85,226.92 304.98,196.15 275.99,196.15 	"/>
	<path class="st18" d="M256.18,139.16c0-0.98-0.8-1.78-1.78-1.78h-3.9c-0.98,0-1.78,0.8-1.78,1.78v4.35c0,0.98,0.8,1.78,1.78,1.78
		h3.9c0.98,0,1.78-0.8,1.78-1.78V139.16z"/>
	<path class="st20" d="M301.35,137.38h-3.9c-0.98,0-1.78,0.8-1.78,1.78v4.35c0,0.98,0.8,1.78,1.78,1.78h3.9
		c0.98,0,1.78-0.8,1.78-1.78v-4.35C303.14,138.18,302.34,137.38,301.35,137.38z"/>
	<path class="st22" d="M290.51,179.78h-1.18c-0.21,0-0.37-0.17-0.37-0.37c0-0.21,0.17-0.37,0.37-0.37h1.18
		c0.09,0,0.18-0.01,0.27-0.02c0.2-0.03,0.4,0.11,0.43,0.31c0.03,0.2-0.11,0.4-0.31,0.43C290.77,179.77,290.64,179.78,290.51,179.78z
		 M287.83,179.78h-1.5c-0.21,0-0.37-0.17-0.37-0.37c0-0.21,0.17-0.37,0.37-0.37h1.5c0.21,0,0.37,0.17,0.37,0.37
		C288.2,179.61,288.03,179.78,287.83,179.78z M284.82,179.78h-1.5c-0.21,0-0.37-0.17-0.37-0.37c0-0.21,0.17-0.37,0.37-0.37h1.5
		c0.21,0,0.37,0.17,0.37,0.37C285.2,179.61,285.03,179.78,284.82,179.78z M281.82,179.78h-1.5c-0.21,0-0.37-0.17-0.37-0.37
		c0-0.21,0.17-0.37,0.37-0.37h1.5c0.21,0,0.37,0.17,0.37,0.37C282.19,179.61,282.02,179.78,281.82,179.78z M278.81,179.78h-1.5
		c-0.21,0-0.37-0.17-0.37-0.37c0-0.21,0.17-0.37,0.37-0.37h1.5c0.21,0,0.37,0.17,0.37,0.37
		C279.18,179.61,279.02,179.78,278.81,179.78z M275.8,179.78h-1.5c-0.21,0-0.37-0.17-0.37-0.37c0-0.21,0.17-0.37,0.37-0.37h1.5
		c0.21,0,0.37,0.17,0.37,0.37C276.18,179.61,276.01,179.78,275.8,179.78z M272.8,179.78h-1.5c-0.21,0-0.37-0.17-0.37-0.37
		c0-0.21,0.17-0.37,0.37-0.37h1.5c0.21,0,0.38,0.17,0.38,0.37C273.17,179.61,273,179.78,272.8,179.78z M269.79,179.78h-1.5
		c-0.21,0-0.37-0.17-0.37-0.37c0-0.21,0.17-0.37,0.37-0.37h1.5c0.21,0,0.37,0.17,0.37,0.37C270.16,179.61,270,179.78,269.79,179.78z
		 M266.78,179.78h-1.5c-0.21,0-0.38-0.17-0.38-0.37c0-0.21,0.17-0.37,0.38-0.37h1.5c0.21,0,0.37,0.17,0.37,0.37
		C267.16,179.61,266.99,179.78,266.78,179.78z M263.78,179.78h-1.5c-0.21,0-0.37-0.17-0.37-0.37c0-0.21,0.17-0.37,0.37-0.37h1.5
		c0.21,0,0.37,0.17,0.37,0.37C264.15,179.61,263.98,179.78,263.78,179.78z M260.86,179.37c-0.08,0-0.15-0.02-0.22-0.07
		c-0.48-0.35-0.82-0.86-0.96-1.44c-0.05-0.2,0.08-0.4,0.28-0.45c0.21-0.04,0.4,0.07,0.45,0.28c0.1,0.4,0.34,0.76,0.68,1.01
		c0.17,0.12,0.2,0.36,0.08,0.52C261.09,179.32,260.97,179.37,260.86,179.37z M292.12,179.03c-0.09,0-0.17-0.03-0.24-0.09
		c-0.16-0.14-0.18-0.37-0.04-0.53c0.27-0.32,0.42-0.72,0.42-1.14c0-0.21,0.17-0.39,0.37-0.39c0.21,0,0.37,0.15,0.37,0.36v0.02
		c0,0.59-0.21,1.17-0.6,1.62C292.33,178.99,292.22,179.03,292.12,179.03z M259.98,176.65c-0.21,0-0.37-0.17-0.37-0.37v-1.5
		c0-0.21,0.17-0.37,0.37-0.37c0.21,0,0.37,0.17,0.37,0.37v1.5C260.35,176.48,260.19,176.65,259.98,176.65z M292.63,176.13
		c-0.21,0-0.37-0.17-0.37-0.37v-1.5c0-0.21,0.17-0.37,0.37-0.37c0.21,0,0.37,0.17,0.37,0.37v1.5
		C293,175.96,292.84,176.13,292.63,176.13z M259.98,173.64c-0.21,0-0.37-0.17-0.37-0.37v-1.5c0-0.21,0.17-0.37,0.37-0.37
		c0.21,0,0.37,0.17,0.37,0.37v1.5C260.35,173.48,260.19,173.64,259.98,173.64z M292.63,173.12c-0.21,0-0.37-0.17-0.37-0.37v-1.5
		c0-0.21,0.17-0.37,0.37-0.37c0.21,0,0.37,0.17,0.37,0.37v1.5C293,172.95,292.84,173.12,292.63,173.12z M259.98,170.64
		c-0.21,0-0.37-0.17-0.37-0.37v-1.5c0-0.21,0.17-0.37,0.37-0.37c0.21,0,0.37,0.17,0.37,0.37v1.5
		C260.35,170.47,260.19,170.64,259.98,170.64z M292.63,170.11c-0.21,0-0.37-0.17-0.37-0.37v-1.5c0-0.21,0.17-0.37,0.37-0.37
		c0.21,0,0.37,0.17,0.37,0.37v1.5C293,169.95,292.84,170.11,292.63,170.11z M259.98,167.63c-0.21,0-0.37-0.17-0.37-0.37v-1.5
		c0-0.21,0.17-0.37,0.37-0.37c0.21,0,0.37,0.17,0.37,0.37v1.5C260.35,167.46,260.19,167.63,259.98,167.63z M292.63,167.11
		c-0.21,0-0.37-0.17-0.37-0.37v-1.5c0-0.21,0.17-0.37,0.37-0.37c0.21,0,0.37,0.17,0.37,0.37v1.5
		C293,166.94,292.84,167.11,292.63,167.11z M259.98,164.63c-0.21,0-0.37-0.17-0.37-0.37v-1.5c0-0.21,0.17-0.37,0.37-0.37
		c0.21,0,0.37,0.17,0.37,0.37v1.5C260.35,164.46,260.19,164.63,259.98,164.63z M292.63,164.1c-0.21,0-0.37-0.17-0.37-0.37v-1.5
		c0-0.21,0.17-0.37,0.37-0.37c0.21,0,0.37,0.17,0.37,0.37v1.5C293,163.93,292.84,164.1,292.63,164.1z M259.98,161.62
		c-0.21,0-0.37-0.17-0.37-0.37v-1.5c0-0.21,0.17-0.37,0.37-0.37c0.21,0,0.37,0.17,0.37,0.37v1.5
		C260.35,161.45,260.19,161.62,259.98,161.62z M292.63,161.09c-0.21,0-0.37-0.17-0.37-0.37v-1.5c0-0.21,0.17-0.37,0.37-0.37
		c0.21,0,0.37,0.17,0.37,0.37v1.5C293,160.93,292.84,161.09,292.63,161.09z M259.98,158.61c-0.21,0-0.37-0.17-0.37-0.37v-1.5
		c0-0.21,0.17-0.37,0.37-0.37c0.21,0,0.37,0.17,0.37,0.37v1.5C260.35,158.45,260.19,158.61,259.98,158.61z M292.63,158.09
		c-0.21,0-0.37-0.17-0.37-0.37v-0.99c0-0.14-0.02-0.28-0.05-0.42c-0.05-0.2,0.07-0.4,0.27-0.45c0.21-0.05,0.4,0.07,0.45,0.27
		c0.05,0.19,0.07,0.4,0.07,0.6v0.99C293,157.92,292.84,158.09,292.63,158.09z M260.48,155.73c-0.09,0-0.17-0.03-0.24-0.09
		c-0.16-0.13-0.18-0.37-0.04-0.53c0.39-0.46,0.92-0.76,1.51-0.85c0.2-0.03,0.4,0.11,0.43,0.31c0.03,0.2-0.1,0.4-0.31,0.43
		c-0.41,0.07-0.78,0.28-1.06,0.6C260.7,155.68,260.59,155.73,260.48,155.73z M291.74,155.37c-0.08,0-0.15-0.02-0.22-0.07
		c-0.3-0.21-0.65-0.33-1.01-0.33h-0.19c-0.21,0-0.37-0.17-0.37-0.37c0-0.21,0.17-0.37,0.37-0.37h0.19c0.52,0,1.02,0.16,1.45,0.47
		c0.17,0.12,0.21,0.35,0.09,0.52C291.97,155.32,291.86,155.37,291.74,155.37z M288.82,154.98h-1.5c-0.21,0-0.37-0.17-0.37-0.37
		c0-0.21,0.17-0.37,0.37-0.37h1.5c0.21,0,0.37,0.17,0.37,0.37C289.19,154.81,289.02,154.98,288.82,154.98z M285.81,154.98h-1.5
		c-0.21,0-0.37-0.17-0.37-0.37c0-0.21,0.17-0.37,0.37-0.37h1.5c0.21,0,0.37,0.17,0.37,0.37
		C286.19,154.81,286.02,154.98,285.81,154.98z M282.81,154.98h-1.5c-0.21,0-0.37-0.17-0.37-0.37c0-0.21,0.17-0.37,0.37-0.37h1.5
		c0.21,0,0.37,0.17,0.37,0.37C283.18,154.81,283.01,154.98,282.81,154.98z M279.8,154.98h-1.5c-0.21,0-0.37-0.17-0.37-0.37
		c0-0.21,0.17-0.37,0.37-0.37h1.5c0.21,0,0.37,0.17,0.37,0.37C280.17,154.81,280.01,154.98,279.8,154.98z M276.79,154.98h-1.5
		c-0.21,0-0.37-0.17-0.37-0.37c0-0.21,0.17-0.37,0.37-0.37h1.5c0.21,0,0.37,0.17,0.37,0.37C277.17,154.81,277,154.98,276.79,154.98z
		 M273.79,154.98h-1.5c-0.21,0-0.37-0.17-0.37-0.37c0-0.21,0.17-0.37,0.37-0.37h1.5c0.21,0,0.37,0.17,0.37,0.37
		C274.16,154.81,273.99,154.98,273.79,154.98z M270.78,154.98h-1.5c-0.21,0-0.37-0.17-0.37-0.37c0-0.21,0.17-0.37,0.37-0.37h1.5
		c0.21,0,0.37,0.17,0.37,0.37C271.16,154.81,270.99,154.98,270.78,154.98z M267.77,154.98h-1.5c-0.21,0-0.37-0.17-0.37-0.37
		c0-0.21,0.17-0.37,0.37-0.37h1.5c0.21,0,0.37,0.17,0.37,0.37C268.15,154.81,267.98,154.98,267.77,154.98z M265.14,154.6
		c0,0.21-0.17,0.37-0.37,0.37h-1.5c-0.21,0-0.37-0.17-0.37-0.37c0-0.21,0.17-0.37,0.37-0.37h1.5
		C264.98,154.23,265.14,154.39,265.14,154.6z"/>
	<path class="st21" d="M245.79,214.55l-2.41,11.96c-3.17,15.68-0.86,27.68,1.7,47.68c1.28,10.03,5.99,40,5.99,40
		c0.89,4.53,1.28,9.16,1.18,13.8l-0.49,22.68c-0.1,4.61,0.21,9.23,0.93,13.77l2.75,27.93h13.15l2.99-28.16
		c0.62-7.19,0.72-14.43,0.3-21.64l-0.63-10.87c-0.16-2.74-0.05-5.49,0.33-8.2c0.61-4.4,0.52-8.9-0.28-13.26
		c-0.19-1.08-0.29-2.18-0.29-3.28l1.84-47.96c0-3.26,0.47-5.91,3.32-5.91l-0.02-38.52H245.79z"/>
	<g>
		<path class="st23" d="M232.99,420.36c0,0-0.37,3.78,1.75,4.59c2.12,0.81,7.35,1.84,15.97-1.04c4.79-1.6,5.54-3.05,10.57-2.9
			c5.02,0.14,9.79-1.73,10.68-2.84c0.89-1.11,0.49-3.76-0.72-5.54c-1.2-1.78-17.46,3.58-17.46,3.58l-13.29,3.22L232.99,420.36z"/>
		<path class="st18" d="M268.75,398.58c-0.64-2.59-0.51-4.7-0.51-4.7h-12.52l0.01,4.92c-2.88,0.64-4.6,4.26-4.6,4.26
			s-2.49,4.23-5.69,8.49c-3.2,4.27-5.16,1.43-10.11,4.7c-4.95,3.27-1.9,5.36,0.03,5.94c4.94,1.14,15.85-0.98,18.96-2.84
			c3.11-1.86,8.62-3.5,12.5-4.23c3.87-0.73,3.59-1.07,4.52-2.06C271.24,404.72,269.39,401.17,268.75,398.58z"/>
		<path class="st20" d="M251.1,416.88l20.15-6.35c0,0,0.09-1.99-0.61-5.06c-0.7-3.07-1.89-6.89-1.89-6.89s-8.03-1.82-9.72,3.76
			c-1.69,5.58-12.79,11.65-12.79,11.65L251.1,416.88z"/>
		<path class="st24" d="M252.38,411.1c0-0.64-0.52-1.16-1.16-1.16c-0.64,0-1.15,0.52-1.15,1.16c0,0.64,0.52,1.16,1.15,1.16
			C251.87,412.26,252.38,411.74,252.38,411.1z"/>
		<path class="st24" d="M249.6,412.63c0-0.64-0.52-1.16-1.16-1.16c-0.64,0-1.16,0.52-1.16,1.16c0,0.64,0.52,1.16,1.16,1.16
			C249.08,413.79,249.6,413.27,249.6,412.63z"/>
		<path class="st23" d="M247.39,412.16c-0.3-0.36-0.76-0.59-1.38-0.54c-0.46,0.04-0.81,0.21-1.06,0.47c-0.15-0.16-0.15-0.4,0-0.56
			c0.43-0.43,0.93-0.64,1.49-0.6c1.24,0.08,2.27,1.41,2.31,1.46c0.13,0.17,0.1,0.43-0.07,0.56c-0.06,0.05-0.14,0.08-0.21,0.08
			c-0.13,0.01-0.26-0.04-0.35-0.16C248,412.71,247.73,412.41,247.39,412.16z"/>
		<path class="st23" d="M247.84,409.34c-0.12-0.02-0.26-0.03-0.4-0.02c-0.45,0.04-0.77,0.24-0.98,0.52
			c-0.02-0.01-0.03-0.01-0.04-0.02c-0.17-0.14-0.19-0.39-0.05-0.56c0.39-0.47,0.88-0.71,1.45-0.71c1.72-0.02,3.63,2.18,3.71,2.27
			c0.15,0.17,0.13,0.42-0.04,0.56c-0.06,0.06-0.15,0.09-0.23,0.1c-0.12,0.01-0.25-0.04-0.34-0.14
			C250.45,410.78,248.96,409.34,247.84,409.34z"/>
		<path class="st24" d="M257.1,406.93c0-0.64-0.52-1.16-1.16-1.16c-0.64,0-1.16,0.52-1.16,1.16s0.52,1.16,1.16,1.16
			C256.58,408.09,257.1,407.57,257.1,406.93z"/>
		<path class="st24" d="M254.69,409.09c0-0.64-0.52-1.16-1.16-1.16c-0.64,0-1.16,0.52-1.16,1.16c0,0.64,0.52,1.16,1.16,1.16
			C254.18,410.25,254.69,409.73,254.69,409.09z"/>
		<path class="st23" d="M249.3,407c-0.48,0.04-0.86,0.22-1.13,0.49c-0.05-0.03-0.11-0.07-0.15-0.12c-0.13-0.18-0.09-0.43,0.09-0.56
			c2.54-1.85,5.69,1.87,5.83,2.03c0.14,0.17,0.12,0.42-0.05,0.56c-0.06,0.06-0.15,0.09-0.23,0.09c-0.12,0.01-0.25-0.04-0.34-0.14
			c-0.02-0.02-1.47-1.73-3-2.15C250.04,407.05,249.7,406.97,249.3,407z"/>
		<path class="st23" d="M250.97,404.73c-0.57,0.04-1.04,0.2-1.44,0.44c-0.05-0.03-0.09-0.07-0.13-0.13
			c-0.12-0.19-0.06-0.44,0.13-0.55c3.1-1.9,6.61,2.03,6.75,2.2c0.15,0.16,0.13,0.42-0.03,0.56c-0.07,0.06-0.15,0.09-0.23,0.1
			c-0.12,0.01-0.24-0.04-0.33-0.14c-0.02-0.02-1.29-1.44-2.85-2.1C252.32,404.83,251.7,404.67,250.97,404.73z"/>
		<path class="st24" d="M259.41,404.73c0-0.64-0.52-1.16-1.16-1.16s-1.15,0.52-1.15,1.16c0,0.64,0.52,1.16,1.15,1.16
			S259.41,405.37,259.41,404.73z"/>
		<path class="st23" d="M252.55,402.37c-0.6,0.08-1.16,0.29-1.66,0.59c-0.05-0.03-0.09-0.06-0.13-0.11
			c-0.13-0.18-0.09-0.43,0.08-0.56c2.85-2.11,6.32,0.51,7.76,2.19c0.15,0.17,0.12,0.42-0.05,0.56c-0.07,0.06-0.15,0.09-0.23,0.09
			c-0.12,0.01-0.25-0.04-0.33-0.14C257.97,404.95,255.22,401.8,252.55,402.37z"/>
	</g>
	<g>
		<path class="st19" d="M276.38,204.81h-30.45c-0.4,0-0.72,0.32-0.72,0.72v4.26c0,0.48,0.39,0.86,0.86,0.86h30.3l1.72-2.69
			L276.38,204.81z"/>
		<path class="st20" d="M306.83,204.81h-30.45v5.84h30.3c0.48,0,0.86-0.39,0.86-0.86v-4.26
			C307.55,205.13,307.23,204.81,306.83,204.81z"/>
	</g>
	<g>
		<path class="st19" d="M249.86,207.81v12.41c0,1.65,1.35,3.01,3.01,3.01h9.94c1.65,0,3.01-1.35,3.01-3.01v-12.41H249.86z"/>
		<g>
			<rect x="260.09" y="207.55" class="st16" width="0.74" height="5.24"/>
			<path class="st16" d="M262.27,197.58c0,0.72-0.81,1.3-1.81,1.3c-1,0-1.81-0.58-1.81-1.3c0-0.72,0.81-1.3,1.81-1.3
				C261.46,196.28,262.27,196.86,262.27,197.58z"/>
			<polygon class="st3" points="261.39,197.49 259.53,197.49 258.65,197.49 258.65,209.12 259.53,210.48 261.39,210.48 
				262.27,209.12 262.27,197.49 			"/>
			<rect x="259.53" y="197.49" class="st2" width="1.86" height="12.99"/>
		</g>
		<g>
			<path class="st16" d="M256.26,201.65c0,0.57-0.64,1.03-1.43,1.03c-0.79,0-1.43-0.46-1.43-1.03c0-0.57,0.64-1.03,1.43-1.03
				C255.62,200.62,256.26,201.08,256.26,201.65z"/>
			<polygon class="st3" points="255.57,201.58 254.1,201.58 253.41,201.58 253.41,210.76 254.1,211.83 255.57,211.83 256.26,210.76 
				256.26,201.58 			"/>
			<rect x="254.1" y="201.58" class="st2" width="1.47" height="10.25"/>
		</g>
		<path class="st18" d="M249.86,211.83v8.39c0,1.65,1.35,3.01,3.01,3.01h9.94c1.65,0,3.01-1.35,3.01-3.01v-8.39H249.86z"/>
	</g>
	<g>
		<path class="st20" d="M279.51,207.83v12.41c0,1.65,1.35,3.01,3.01,3.01h19.24c1.65,0,3.01-1.35,3.01-3.01v-12.41H279.51z"/>
		<g>
			<path class="st16" d="M286.4,219.37c0-0.63,0.52-1.15,1.15-1.15l0.87-8.54l-0.87-6.39c-0.32,0-0.57-0.26-0.57-0.57
				c0-0.24,0.15-0.44,0.35-0.53c0.01,0,0.02,0,0.03-0.01c0.06-0.02,0.13-0.04,0.19-0.04l0.52-0.66l-0.52-0.77l-1.72-0.96l0-3.35
				c-1.03,0.64-1.72,1.83-1.72,3.2c0,1.61,0.97,2.98,2.31,3.48c-0.01,0.05-0.02,0.1-0.02,0.14l-0.1,2.99l-0.01,0.18l-0.03,0.88
				l-0.44,13.3c0,0.6,0.51,1.09,1.15,1.09l0.57,0v-1.15C286.92,220.51,286.4,220,286.4,219.37z"/>
			<g>
				<path class="st17" d="M291,199.6c0-1.37-0.69-2.56-1.72-3.2l0,3.35l-1.72,0.97l0,0v1.43c0,0,0,0,0.01,0
					c0.08,0,0.15,0.02,0.22,0.04c0.05,0.02,0.1,0.06,0.14,0.1c0.01,0.01,0.03,0.02,0.04,0.03c0.1,0.1,0.17,0.25,0.17,0.41
					c0,0.32-0.26,0.57-0.57,0.57c0,0-0.01,0-0.01,0c0,0,0.01,0,0.01,0v14.93c-0.11,0-0.22,0.03-0.32,0.07
					c0.1-0.03,0.21-0.07,0.32-0.07c0.63,0,1.15,0.52,1.15,1.15c0,0.63-0.52,1.15-1.15,1.15c-0.04,0-0.07-0.02-0.11-0.02
					c0.04,0,0.07,0.02,0.11,0.02v1.15l-0.57,0l1.15,0c0.63,0,1.15-0.48,1.15-1.08l-0.45-13.67l-0.12-3.68c0-0.05-0.01-0.1-0.02-0.14
					C290.03,202.58,291,201.21,291,199.6z"/>
			</g>
		</g>
		<g>
			<polygon class="st16" points="295.63,209.46 294.72,209.46 294.73,216.21 294.32,216.21 294.89,219.06 295.46,219.06 
				296.03,216.21 295.63,216.21 			"/>
			<path class="st2" d="M295.63,209.75c0.52-0.09,0.9-0.44,0.92-1.22c0.05-2.34,0.22-4.68,0.35-7.03c0.06-0.91-0.63-1.69-1.52-1.69
				c-0.13,0-0.27,0-0.4,0c-0.89,0.01-1.58,0.78-1.52,1.69c0.14,2.34,0.3,4.68,0.35,7.03c0.02,0.77,0.4,1.12,0.92,1.22v0
				L295.63,209.75L295.63,209.75z"/>
			<path class="st3" d="M294.72,209.75h0.46v-9.94c-0.07,0-0.14,0-0.21,0c-0.89,0.01-1.58,0.78-1.52,1.69
				c0.14,2.34,0.3,4.68,0.35,7.03C293.82,209.31,294.2,209.66,294.72,209.75L294.72,209.75z"/>
		</g>
		<path class="st19" d="M279.51,211.85v8.39c0,1.65,1.35,3.01,3.01,3.01h19.24c1.65,0,3.01-1.35,3.01-3.01v-8.39H279.51z"/>
	</g>
	<path class="st22" d="M269.81,392.85c0-0.49-0.4-0.89-0.89-0.89h-13.96c-0.49,0-0.89,0.4-0.89,0.89v5.06c0,0.49,0.4,0.89,0.89,0.89
		h13.96c0.49,0,0.89-0.4,0.89-0.89V392.85z"/>
	<g>
		<path class="st23" d="M319.22,420.35c0,0,0.37,3.78-1.75,4.59c-2.12,0.81-7.34,1.84-15.95-1.04c-4.78-1.6-5.54-3.05-10.56-2.9
			c-5.02,0.14-9.78-1.73-10.66-2.84c-0.89-1.11-0.49-3.76,0.72-5.54c1.2-1.78,17.43,3.58,17.43,3.58l13.27,3.22L319.22,420.35z"/>
		<path class="st18" d="M283.52,398.57c0.64-2.59,0.51-4.7,0.51-4.7h12.5l-0.01,4.92c2.87,0.64,4.6,4.26,4.6,4.26
			s2.49,4.23,5.68,8.49c3.2,4.27,5.16,1.43,10.1,4.7c4.94,3.27,1.9,5.36-0.03,5.94c-4.93,1.14-15.83-0.98-18.93-2.84
			c-3.1-1.86-8.61-3.5-12.48-4.23c-3.87-0.73-3.58-1.07-4.52-2.06C281.03,404.71,282.88,401.16,283.52,398.57z"/>
		<path class="st20" d="M301.14,416.87l-20.12-6.35c0,0-0.09-1.99,0.61-5.06c0.7-3.07,1.89-6.89,1.89-6.89s8.01-1.82,9.71,3.76
			c1.69,5.58,12.77,11.65,12.77,11.65L301.14,416.87z"/>
		<path class="st24" d="M299.86,411.09c0-0.64,0.52-1.16,1.15-1.16c0.64,0,1.15,0.52,1.15,1.16c0,0.64-0.52,1.16-1.15,1.16
			C300.37,412.25,299.86,411.73,299.86,411.09z"/>
		<path class="st24" d="M302.64,412.62c0-0.64,0.52-1.16,1.15-1.16c0.64,0,1.15,0.52,1.15,1.16s-0.52,1.16-1.15,1.16
			C303.16,413.78,302.64,413.26,302.64,412.62z"/>
		<path class="st23" d="M304.84,412.15c0.3-0.36,0.76-0.59,1.38-0.54c0.46,0.04,0.8,0.21,1.05,0.47c0.15-0.16,0.15-0.4,0-0.56
			c-0.43-0.43-0.93-0.64-1.48-0.6c-1.24,0.08-2.27,1.41-2.31,1.46c-0.13,0.17-0.1,0.43,0.07,0.56c0.06,0.05,0.14,0.08,0.21,0.08
			c0.13,0.01,0.26-0.04,0.35-0.16C304.24,412.7,304.51,412.4,304.84,412.15z"/>
		<path class="st23" d="M304.39,409.33c0.12-0.02,0.26-0.03,0.4-0.02c0.45,0.04,0.77,0.24,0.98,0.52c0.02-0.01,0.03-0.01,0.04-0.02
			c0.17-0.14,0.19-0.39,0.05-0.56c-0.39-0.47-0.88-0.71-1.45-0.71c-1.72-0.02-3.62,2.18-3.7,2.27c-0.15,0.17-0.13,0.42,0.04,0.56
			c0.06,0.06,0.15,0.09,0.23,0.1c0.12,0.01,0.25-0.04,0.33-0.14C301.79,410.77,303.28,409.33,304.39,409.33z"/>
		<path class="st24" d="M295.15,406.92c0-0.64,0.52-1.16,1.15-1.16c0.64,0,1.15,0.52,1.15,1.16c0,0.64-0.52,1.16-1.15,1.16
			C295.67,408.08,295.15,407.56,295.15,406.92z"/>
		<path class="st24" d="M297.55,409.08c0-0.64,0.52-1.16,1.15-1.16c0.64,0,1.15,0.52,1.15,1.16c0,0.64-0.52,1.16-1.15,1.16
			C298.07,410.24,297.55,409.72,297.55,409.08z"/>
		<path class="st23" d="M302.94,406.99c0.48,0.04,0.86,0.22,1.13,0.49c0.05-0.03,0.11-0.07,0.15-0.12c0.13-0.18,0.09-0.43-0.09-0.56
			c-2.53-1.85-5.69,1.87-5.82,2.03c-0.14,0.17-0.12,0.42,0.05,0.56c0.06,0.06,0.15,0.09,0.23,0.09c0.12,0.01,0.25-0.04,0.34-0.14
			c0.02-0.02,1.47-1.73,3-2.15C302.2,407.04,302.54,406.96,302.94,406.99z"/>
		<path class="st23" d="M301.27,404.72c0.57,0.04,1.04,0.2,1.44,0.44c0.05-0.03,0.09-0.07,0.13-0.13c0.12-0.19,0.06-0.44-0.13-0.55
			c-3.09-1.9-6.6,2.03-6.74,2.2c-0.15,0.16-0.13,0.42,0.03,0.56c0.07,0.06,0.15,0.09,0.23,0.1c0.12,0.01,0.24-0.04,0.33-0.14
			c0.02-0.02,1.29-1.44,2.85-2.1C299.92,404.81,300.54,404.66,301.27,404.72z"/>
		<path class="st24" d="M292.84,404.72c0-0.64,0.52-1.16,1.15-1.16c0.64,0,1.15,0.52,1.15,1.16s-0.52,1.16-1.15,1.16
			C293.36,405.87,292.84,405.36,292.84,404.72z"/>
		<path class="st23" d="M299.69,402.36c0.6,0.08,1.15,0.29,1.65,0.59c0.05-0.03,0.09-0.06,0.13-0.11c0.13-0.18,0.09-0.43-0.08-0.56
			c-2.85-2.11-6.31,0.51-7.74,2.19c-0.14,0.17-0.12,0.42,0.05,0.56c0.07,0.06,0.15,0.09,0.23,0.09c0.12,0.01,0.25-0.04,0.33-0.14
			C294.28,404.94,297.03,401.79,299.69,402.36z"/>
	</g>
	<path class="st22" d="M282.62,393.03c0-0.49,0.4-0.89,0.89-0.89h13.94c0.49,0,0.89,0.4,0.89,0.89v5.06c0,0.49-0.4,0.89-0.89,0.89
		h-13.94c-0.49,0-0.89-0.4-0.89-0.89V393.03z"/>
	<g>
		<g>
			<path class="st6" d="M252.95,87.69c1.48-1.57,0.97-3.58,0.19-5.3c-1.21-2.64-0.28-4.99,1.74-6.66c0.17-0.12,1.46-1.04,1.83-2.69
				c0.4-1.76-0.91-3.77-1.06-6.18c-0.15-2.4-0.63,3.58-0.63,3.58s1.37,3.12-0.69,4.73c0,0,0,0.01,0,0.01
				c-2.13,1.74-3.2,4.34-2.06,7.05c0.69,1.64,1.6,3.42,0.38,5.02c-1.23,1.62-1.09,3.17,0.32,4.81c0.17,0.2,0.37,0.4,0.6,0.51
				C252.39,91.29,251.66,89.06,252.95,87.69z"/>
			<path class="st7" d="M298.57,68.11c0,0-3,0.76-2.22,4.42c0.79,3.66,3.82,4.51,2.56,7.38c1.08-1.68,0.78-2.46-1.27-5.75
				c-2.05-3.29,1.62-5.76,1.62-5.76L298.57,68.11z"/>
			<path class="st7" d="M292.85,90.86c0,0-0.82,2.01,0.09,5.21c0.92,3.2,3.66,3.76,2.72,6.37c0.67-1.89,0.27-2.61-1.2-4.64
				c-2.03-2.78,0.11-6.94,0.11-6.94H292.85z"/>
			<path class="st6" d="M262.64,96.17c0,0-0.83,2.01,0.09,5.21c0.92,3.19,3.66,3.76,2.72,6.37c0.67-1.89,0.27-2.61-1.21-4.64
				c-2.02-2.78,0.11-6.94,0.11-6.94H262.64z"/>
			<path class="st6" d="M261.5,92.58c0,0-1.18,1.82-0.87,5.13c0.32,3.31,2.91,4.36,1.5,6.76c1.01-1.73,0.75-2.52-0.33-4.78
				c-1.48-3.11,1.38-6.8,1.38-6.8L261.5,92.58z"/>
			<path class="st6" d="M255.3,73.99c0,0-0.55,2.1-3.21,4.1c-2.65,2-5.18,0.8-6.01,3.46c0.6-1.91,1.35-2.25,3.75-2.98
				c3.29-1,4.09-5.61,4.09-5.61L255.3,73.99z"/>
			<path class="st7" d="M290.65,103.3c-0.89-3.37,0.92-6.61,0.06-9.99c-0.1-0.37-0.25-0.7-0.41-1.01c-0.17-0.47-0.41-0.92-0.75-1.28
				c-1.14-1.21-2.34-1.44-2.42-4.19c0.03-0.16,0.05-0.31,0.09-0.47c0.04-0.17-3.61-3.12-3.57-3.28c-0.02,0.1,0.58,0.6,0.81,0.99
				c0.48,0.8,0.9,1.65,1.23,2.53c0.3,0.77,0.69,1.71,1.08,2.37c0,0,0,0-0.01,0l0.01,0c0.18,0.32,0.44,0.64,0.78,0.94
				c1.72,1.53,2.57,3.2,2.54,4.49c0,0.08,0,0.15,0,0.23c0,0.05,0,0.1,0,0.14c-0.08,1.95-0.67,4-0.37,6.04
				c0.75,5.14,2.57,6.35,2.76,6.6C291.56,106.2,291.04,104.76,290.65,103.3z"/>
			<g>
				<path class="st6" d="M250.79,58.26c-0.86,7.64,4.52,20.44,4.52,20.44s10.33,0.57,20.64,0.74V48.73
					C266.6,49.32,251.44,52.51,250.79,58.26z"/>
				<path class="st7" d="M282.53,49c-1.09-0.37-3.53-0.46-6.59-0.27v30.71c9.67,0.16,19.32-0.04,20.36-1.39
					c2.15-2.8,4.24-10.11,4.57-17.32C301.19,53.53,286.94,50.51,282.53,49z"/>
			</g>
			<path class="st5" d="M295.08,77.39l2.05-1.4c0.36-0.24,0.8-0.31,1.22-0.19c0.42,0.12,0.75,0.42,0.92,0.81
				c0.88,2.05,1,4.34,0.34,6.47l-0.48,1.55c-0.24,2.06-0.47,2.9-1.56,3.87l-0.31,0.14c-0.43,0.2-0.94,0.13-1.31-0.18l-1.5-1.26
				L295.08,77.39z"/>
			<path class="st0" d="M256.73,77.39l-2.05-1.4c-0.36-0.24-0.8-0.31-1.22-0.19c-0.42,0.12-0.75,0.42-0.92,0.81
				c-0.88,2.05-1,4.34-0.34,6.47l0.48,1.55c0.24,2.06,0.47,2.9,1.56,3.87l0.31,0.14c0.44,0.2,0.95,0.13,1.31-0.18l1.5-1.26
				L256.73,77.39z"/>
			<path class="st8" d="M261,105.21c-1.11-1.36-0.58-2.96,0.15-4.31c1.13-2.07,0.52-4.03-1.03-5.5c-0.13-0.1-1.12-0.93-1.33-2.28
				c-0.22-1.45,0.95-3,1.21-4.95c0.26-1.94,0.31,2.94,0.31,2.94s-1.29,2.45,0.29,3.88c0,0.01,0,0.01,0,0.01
				c1.62,1.54,2.34,3.7,1.26,5.84c-0.65,1.29-1.49,2.68-0.6,4.05c0.9,1.39,0.7,2.63-0.54,3.88c-0.15,0.15-0.33,0.3-0.52,0.38
				C261.26,108.17,261.97,106.4,261,105.21z"/>
			<path class="st6" d="M295.16,99.71c-1.4,0.14-2.24-0.92-2.81-2c-0.89-1.67-2.47-2.12-4.13-1.73c-0.13,0.04-1.11,0.34-2.11-0.12
				c-1.07-0.49-1.59-1.96-2.77-2.99c-1.18-1.03,2.1,1.09,2.1,1.09s1.07,1.94,2.72,1.52c0,0,0,0,0.01,0
				c1.74-0.41,3.49-0.74,4.43,0.92c0.57,1,1.12,2.74,2.43,2.75c1.32,0.01,2.11,0.94,2.4,2.31c0.03,0.17,0.06,0.35,0.03,0.51
				C297.24,100.84,296.37,99.58,295.16,99.71z"/>
			<g>
				<path class="st4" d="M276.14,43.81l2.96,33.99l2.25,14.59l-5.21,16.17h-1.44c-2.53,0-4.96-1.13-6.76-3.13l-7.98-8.92
					c-2.66-3.36-3.98-7.22-4.29-11.77c-0.52-7.69-1.39-30.43-1.39-30.43L276.14,43.81z"/>
				<path class="st0" d="M275.86,43.81l0.13,64.76h1.44c2.4,0,4.83-1.13,6.62-3.13l7.98-8.92c2.85-4.02,4.47-8.21,4.47-15.4
					c0-6.73,1.21-26.8,1.21-26.8L275.86,43.81z"/>
				<path class="st0" d="M272.13,90.86c-0.14,0.18-0.17,0.42-0.07,0.62c0.1,0.2,0.31,0.33,0.53,0.33h3.9V89.3
					c-0.11,0.01-0.21,0.01-0.32,0.02C273.73,89.48,272.62,90.22,272.13,90.86z"/>
			</g>
			<path class="st7" d="M296.84,48.68c-3.42-4.27-9.42-7.23-14.6-8.6c1.83-0.54,2.19-1.26,2.1-1.86c2.06-1.13,3.78-2.86,4.06-5.65
				c0.72-6.96-10.84-8.25-12.44-8.3c-0.01,0-0.02,0-0.03,0l-3.43,2.54c-0.01,0-0.01,0-0.02,0l0.28,2.98l0.19,21.07l2.95,3.41
				c0.33,0.03,0.67,0.07,1.01,0.12c6.03,0.86,19.18,11.22,19.83,16.6C304.29,60.22,300.15,52.81,296.84,48.68z"/>
			<path class="st6" d="M275.94,24.27c-2.11-0.08-14.18,6.99-14.23,5.95c0.18,3.72,2.07,5.9,3.99,7.18
				c-0.06,0.2-0.09,0.42-0.07,0.68c0.05,0.61,0.52,1.09,1.2,1.46c-4.45,0.89-9.41,3.36-13.25,9.79
				c-7.32,12.27,1.29,21.09,1.29,21.09s3.35-9.71,7.01-12.5c3.45-2.64,8.42-4.2,14.04-3.65V40.92c0,0,0.01,0,0.01,0V24.27z"/>
			<g>
				<path class="st9" d="M269.62,96.47c0.24,0.37,0.49,0.74,0.75,1.1c1.22,1.72,3.38,2.82,5.7,2.83c2.32,0.03,4.51-1.04,5.76-2.74
					c0.3-0.4,0.58-0.8,0.85-1.2C278.37,97.36,273.93,97.36,269.62,96.47z"/>
				<path class="st10" d="M277.95,96.44c-0.53-0.11-1.08-0.03-1.41,0.38c-0.09,0.11-0.24,0.18-0.39,0.18c-0.15,0-0.3-0.07-0.39-0.18
					c-0.33-0.4-0.88-0.49-1.41-0.38c-1.13,0.31-4.72,0.06-4.72,0.01c0.53,0.26,1.06,0.5,1.61,0.73c3.08,1.3,6.74,1.3,9.82,0
					c0.55-0.23,1.09-0.47,1.61-0.73C282.67,96.5,279.08,96.75,277.95,96.44z"/>
			</g>
			<g>
				<g>
					<path class="st11" d="M258.92,75.65c0,0,1.65,6.91,11.27,2.73C270.19,78.38,266.59,72.47,258.92,75.65z"/>
					<g>
						<g>
							<path class="st12" d="M261.89,77.07c0.05,1.38,1.21,2.46,2.59,2.41c1.38-0.05,2.46-1.21,2.41-2.59
								c-0.05-1.38-1.21-2.46-2.59-2.42C262.92,74.52,261.84,75.68,261.89,77.07z"/>
							<path class="st11" d="M262.98,76.49c0.02,0.41,0.36,0.74,0.78,0.72c0.41-0.01,0.74-0.36,0.72-0.78
								c-0.01-0.41-0.36-0.74-0.77-0.72C263.29,75.73,262.96,76.07,262.98,76.49z"/>
						</g>
					</g>
					<path class="st12" d="M258.66,75.81c-0.01,0.01-0.01,0.02-0.01,0.03c0.01,0.01,0.02,0.02,0.03,0.01
						c1.18-0.5,6.19-2.17,11.59,2.6c0.01,0.01,0.02,0.01,0.03,0c0.01-0.01,0.01-0.02,0-0.03C269.76,77.48,265.76,71.26,258.66,75.81
						z"/>
				</g>
				<g>
					<path class="st11" d="M292.53,75.65c0,0-1.65,6.91-11.27,2.73C281.26,78.38,284.86,72.47,292.53,75.65z"/>
					<g>
						<path class="st12" d="M284.56,76.89c-0.05,1.38,1.03,2.54,2.42,2.59c1.38,0.05,2.54-1.03,2.59-2.42
							c0.05-1.38-1.03-2.54-2.42-2.59C285.77,74.43,284.61,75.51,284.56,76.89z"/>
						<path class="st11" d="M285.69,76.39c-0.02,0.41,0.31,0.76,0.72,0.78c0.42,0.01,0.76-0.31,0.78-0.72
							c0.01-0.42-0.31-0.76-0.73-0.78C286.05,75.65,285.71,75.98,285.69,76.39z"/>
					</g>
					<path class="st12" d="M292.79,75.81c-7.09-4.55-11.09,1.68-11.64,2.62c-0.01,0.01,0,0.02,0,0.03c0.01,0.01,0.02,0.01,0.03,0
						c5.4-4.78,10.4-3.11,11.59-2.6c0.01,0.01,0.03,0,0.03-0.01C292.8,75.83,292.8,75.81,292.79,75.81z"/>
				</g>
			</g>
			<g>
				<g>
					<g>
						<path class="st6" d="M270.3,71.02c-0.61-0.86-2.87-2-5.17-2.33c-5.01-0.71-7.33,1.79-8.38,2.63c-0.03,0.02-0.03,0.07-0.01,0.1
							c0.02,0.03,0.07,0.05,0.1,0.03c4.75-3.47,10.55-1,12.85,0.25c0.19,0.11,0.44,0.07,0.58-0.1
							C270.41,71.45,270.43,71.2,270.3,71.02z"/>
					</g>
				</g>
				<g>
					<g>
						<path class="st7" d="M281,71.02c0.6-0.86,2.87-2,5.17-2.33c5.02-0.71,7.33,1.79,8.39,2.63c0.03,0.02,0.03,0.07,0.01,0.1
							c-0.02,0.03-0.07,0.05-0.1,0.03c-4.76-3.47-10.55-1-12.85,0.25c-0.19,0.11-0.43,0.07-0.58-0.1
							C280.89,71.45,280.87,71.2,281,71.02z"/>
					</g>
				</g>
			</g>
			<path class="st6" d="M295.82,71.8c-0.34-2.13-2.25-2.96-4.08-3.38c-2.83-0.65-4.13-2.82-4.22-5.44c0.01-0.2,0.06-1.79-1.01-3.09
				c-1.15-1.39-4.9-3.24-6.9-4.59c-2-1.35,0.7,1.49,0.7,1.49s6.39,2.85,6.45,6.29c0,0,0,0.01,0,0.01c0.09,2.75,1.49,5.18,4.33,5.93
				c1.72,0.45,3.68,0.82,4.21,2.76c0.54,1.96,1.85,2.79,4.01,2.68c0.26-0.02,0.55-0.05,0.77-0.17
				C298.34,74.45,296.12,73.66,295.82,71.8z"/>
			<path class="st8" d="M248.72,75.2c2.3-2.62,6-2.92,8.32-5.52c0.25-0.29,0.44-0.59,0.61-0.9c0.29-0.4,0.54-0.85,0.65-1.34
				c0.8-3.81,5.7-9.26,5.86-9.32c0.16-0.06-2.71,0.05-2.56,0c-0.1,0.04-0.17,0.81-0.36,1.22c-0.4,0.85-0.88,1.67-1.41,2.43
				c-0.48,0.68-1.03,1.53-1.37,2.22c0,0,0,0,0,0l0,0c-0.16,0.33-0.28,0.72-0.34,1.17c-0.31,2.28-1.22,3.92-2.31,4.61
				c-0.06,0.04-0.12,0.09-0.19,0.13c-0.04,0.03-0.09,0.05-0.12,0.08c-1.67,1.02-3.7,1.67-5.22,3.06c-3.85,3.49-3.83,5.67-3.94,5.97
				C246.82,77.58,247.73,76.34,248.72,75.2z"/>
			<path class="st6" d="M297.17,82.82c-0.89-3.37,0.92-6.61,0.06-9.99c-0.09-0.37-0.24-0.7-0.41-1c-0.17-0.47-0.41-0.92-0.75-1.28
				c-1.14-1.21-2.34-1.44-2.41-4.19c0.03-0.16,0.05-0.31,0.09-0.47c0.04-0.17-3.61-3.12-3.57-3.28c-0.03,0.1,0.58,0.6,0.82,0.98
				c0.48,0.81,0.89,1.66,1.23,2.53c0.3,0.77,0.69,1.71,1.08,2.37l0,0l0,0c0.19,0.32,0.44,0.64,0.78,0.94
				c1.72,1.53,2.57,3.2,2.54,4.49c0,0.07,0,0.15,0,0.23c0,0.05,0,0.1,0,0.14c-0.08,1.95-0.67,4-0.37,6.04
				c0.75,5.14,2.57,6.35,2.76,6.6C298.08,85.72,297.55,84.27,297.17,82.82z"/>
			<path class="st8" d="M274.24,53.04c-1.58-0.82-6.34-2.15-10.01-0.37c-3.67,1.79-3.35,4.46-5.63,5.63
				c-2.28,1.18-2.31,5.92-2.73,7.28c1.16-1.08,0.74-5.6,2.99-6.9c2.25-1.3,2.88-3.13,3.61-3.97c0.73-0.84,5.06-2.99,9.52-1.36
				C276.46,54.98,274.24,53.04,274.24,53.04z"/>
			<path class="st6" d="M276.49,53.12c0,0,2.86-1.53,6.16-0.43c3.3,1.1,1.82,3.1,5.58,4.24c2.04,0.62,4.79,5.2,4.69,5.3
				c-0.11,0.1-2.59-2.93-3.86-3.88c-1.27-0.94-3.48-0.5-4.64-3.14c-1.18-2.71-6.41-1.9-6.41-1.9L276.49,53.12z"/>
			<g>
				<path class="st6" d="M290.84,61.41c-2.12-1.83-4.48-3.58-6.28-4.91c-2.07-1.52-3.67-2.55-7.8-3.81c-0.3-0.09-0.6-0.16-0.9-0.23
					l-0.63,0.82l-0.21,1.55l0.84,0.77c3.09,0.34,6.1,1.81,8.66,3.43c2.91,1.84,5.04,4.41,6.29,5.07c3.78,1.99,6.54,6.02,5.97,9.99
					C298.93,69.12,295.46,65.39,290.84,61.41z"/>
				<path class="st8" d="M257.87,60.84c-1.51,2.46-4.72,11.74-2.71,14.08c0,0-0.15-7.08,4.15-12.14c2.44-2.86,4.98-4.32,8.8-5.52
					c2.13-0.67,5.18-1.93,7.57-1.7c0.06,0.01,0.12,0.02,0.19,0.03v-3.14c-2.58-0.55-5.05,1.19-7.68,1.53
					C263.28,54.61,259.29,58.53,257.87,60.84z"/>
			</g>
			<path class="st8" d="M264.23,56.67c-0.22,0-0.4-0.04-0.6-0.06c-0.36,0.72-0.76,1.59-0.99,2.29c0,0,0-0.01,0-0.01l0,0.01
				c-0.11,0.35-0.18,0.75-0.17,1.21c0.02,2.3-0.64,4.05-1.62,4.9c-0.06,0.05-0.11,0.1-0.17,0.15c-0.04,0.03-0.08,0.07-0.11,0.09
				c-1.5,1.25-3.41,2.19-4.72,3.78c-3.3,4.01-2.98,6.17-3.04,6.48c0.28-1.5,0.99-2.86,1.81-4.12c1.9-2.92,5.52-3.75,7.44-6.66
				c0.21-0.32,0.35-0.65,0.47-0.98c0.23-0.44,0.37-0.93,0.45-1.41c0.3-1.9-0.44-2.99,2.36-4.22c0.13-0.08-0.61-0.56-0.46-0.63
				c0.04-0.02,0.05-0.37,0.05-0.87C264.69,56.62,264.48,56.67,264.23,56.67z"/>
			<g>
				<path class="st14" d="M275.59,76.08c-0.48,0-0.94-0.19-1.29-0.54l-0.54-0.54c-1.07-1.54-2.84-2.46-4.71-2.46l-10.56,0.02
					c-0.9,0-1.77,0.37-2.4,1.01l0,0l-0.2,0.15c-0.27,0.21-0.61,0.32-0.95,0.32l-0.31-0.01c-0.1,0-0.2,0.04-0.27,0.11
					c-0.07,0.07-0.11,0.17-0.11,0.27v1.13c0,0.22,0.18,0.41,0.41,0.41h0.05c0.17,0,0.32,0.11,0.36,0.28l0.16,0.54v-0.01
					c0.01,0.06,0.03,0.12,0.04,0.18l1.86,5.06c0.81,2.6,3.18,4.35,5.9,4.35h5.93c1.46,0,2.77-0.92,3.25-2.3l2-4.8l0.1-0.18
					c0.31-0.56,0.9-0.91,1.54-0.93c0.02,0,0.04,0.01,0.07,0.01l1.71-1l-1.71-1.05H275.59z M273.24,78.6l-2.1,5.41
					c-0.32,0.92-1.19,1.54-2.17,1.54h-5.93c-2.22,0-4.15-1.42-4.81-3.54l-1.86-5.41c-0.21-0.67-0.08-1.41,0.33-1.98
					c0.42-0.57,1.09-0.91,1.79-0.91l10.55-0.02c1.51,0,2.92,0.74,3.79,1.97C273.43,76.52,273.58,77.62,273.24,78.6z"/>
				<path class="st15" d="M297.35,74.14c-0.07-0.07-0.17-0.11-0.27-0.11l-0.31,0.01c-0.34,0-0.68-0.11-0.95-0.32l-0.2-0.15l0,0.01
					c-0.63-0.64-1.49-1.01-2.4-1.01l-10.56-0.02c-1.88,0-3.64,0.92-4.72,2.46l-0.54,0.54c-0.34,0.34-0.8,0.54-1.29,0.54h-0.2v2.06
					c0.61,0.04,1.17,0.37,1.47,0.92l0.1,0.18l2.01,4.8c0.48,1.38,1.79,2.3,3.25,2.3h5.93c2.72,0,5.09-1.75,5.9-4.35l1.86-5.06
					c0.02-0.06,0.03-0.12,0.04-0.17l0,0.01l0.15-0.54c0.05-0.16,0.2-0.28,0.37-0.28h0.05c0.23,0,0.41-0.18,0.41-0.41v-1.13
					C297.47,74.31,297.42,74.22,297.35,74.14z M295.35,76.6l-1.86,5.41c-0.66,2.12-2.59,3.54-4.81,3.54h-5.93
					c-0.97,0-1.85-0.62-2.17-1.54l-2.1-5.41c-0.35-0.98-0.2-2.08,0.4-2.94c0.86-1.23,2.27-1.97,3.78-1.97l10.55,0.02
					c0.71,0,1.37,0.34,1.79,0.91C295.43,75.19,295.56,75.93,295.35,76.6z"/>
			</g>
		</g>
		<path class="st8" d="M274.23,52.95c-1.58-0.82-6.35-2.16-10.02-0.37c-3.67,1.79-3.35,4.46-5.64,5.64
			c-2.28,1.18-2.32,5.93-2.73,7.29c1.16-1.08,0.74-5.61,2.99-6.91c2.25-1.3,2.89-3.14,3.62-3.98c0.73-0.84,5.06-2.99,9.53-1.36
			C276.45,54.89,274.23,52.95,274.23,52.95z"/>
		<path class="st6" d="M276.47,53.03c0,0,2.87-1.53,6.17-0.43c3.3,1.1,1.83,3.11,5.59,4.25c2.04,0.62,4.8,5.21,4.69,5.31
			c-0.11,0.1-2.59-2.94-3.86-3.88c-1.28-0.95-3.49-0.5-4.64-3.15c-1.18-2.72-6.41-1.9-6.41-1.9L276.47,53.03z"/>
		<g>
			<path class="st16" d="M275.55,54.26h-26.21v7.43c0,0.48,0.39,0.87,0.87,0.87h25.34l3.17-3.97L275.55,54.26z"/>
			<path class="st17" d="M275.55,54.26v8.29h25.35c0.48,0,0.87-0.39,0.87-0.87v-7.43H275.55z"/>
		</g>
		<g>
			<path class="st18" d="M275.04,23.53c-1.09,0-2.03-0.62-2.49-1.53c-0.15-0.29-0.25-0.62-0.29-0.96h-0.75
				c-1.6,0-3.04,0.69-4.05,1.78c-0.76,0.82-1.26,1.88-1.41,3.04c-10.36,3.25-15.69,12.06-16.89,22.91c-0.69,0.15-2.47,0.89-2.8,4.34
				c-0.06,0.55-0.08,1.16-0.04,1.86c0.12,0.24,0.26,0.46,0.4,0.66h8.25h10.64H266h7.57h0.54h1.44l5.35-11.95v-6.68l-5.35-13.49
				H275.04z"/>
			<path class="st19" d="M304.75,53.12c-0.35-3.56-2.23-4.23-2.87-4.35c-1.24-10.78-6.68-19.53-16.82-22.83
				c-0.13-1.17-0.62-2.22-1.36-3.05c-1.01-1.13-2.48-1.84-4.11-1.84h-0.74c-0.04,0.35-0.14,0.67-0.29,0.97
				c-0.47,0.9-1.4,1.52-2.5,1.52h-0.5h0v32.12h9.54h0.4h10.63h8.23c0.15-0.21,0.31-0.42,0.44-0.66
				C304.82,54.28,304.79,53.67,304.75,53.12z"/>
		</g>
		<g>
			<path class="st19" d="M247.08,55.16c-0.89,0-1.61,0.92-1.61,2.04c0,1.13,0.72,2.04,1.61,2.04h28.47l1.88-2.04l-1.88-2.04H247.08z
				"/>
			<path class="st20" d="M304.01,55.16h-28.46v4.09h28.46c0.89,0,1.61-0.91,1.61-2.04C305.62,56.07,304.9,55.16,304.01,55.16z"/>
		</g>
		<g>
			<path class="st20" d="M285.06,25.93c-0.13-1.17-0.62-2.22-1.36-3.05c-1.01-1.13-2.48-1.84-4.11-1.84h-0.74
				c-0.04,0.35-0.14,0.67-0.29,0.97c-0.47,0.9-1.4,1.52-2.49,1.52h-0.5h0l-2.89,15.55l2.89,14.02h9.51V25.93z"/>
			<path class="st19" d="M275.04,23.53c-1.09,0-2.03-0.62-2.49-1.53c-0.15-0.29-0.25-0.62-0.29-0.96h-0.75
				c-1.6,0-3.04,0.69-4.05,1.78c-0.76,0.82-1.26,1.88-1.41,3.04c0,0,0,0-0.01,0V53.1h9.51V23.53H275.04z"/>
		</g>
	</g>
</g>
<g>
	<g>
		<g>
			<path class="st3" d="M66.63,129.52c-10.67-0.95-20.12,6.65-21.64,17.13L33.7,202.59l19.69,4.27l13.67-37.34
				c0.11-0.3,0.26-0.64,0.43-1c2.51-5.32,7.22-17.13,23.4-12.62c3.96,1.11-2.32-4.95-6.03-10.3
				C77.79,135.39,77.69,130.5,66.63,129.52z"/>
			<path class="st3" d="M68.33,146.41c1.72,1.92,1.57,4.87-0.36,6.6c-1.92,1.73-4.87,1.56-6.6-0.36c-1.73-1.92-1.56-4.88,0.36-6.6
				C63.65,144.33,66.61,144.49,68.33,146.41z"/>
		</g>
	</g>
	<g>
		<g>
			<path class="st2" d="M136.8,130.76c10.08-3.64,21.15,1.3,25.29,11.05l25.18,51.21l-17.95,9.15l-22.75-32.62
				c-0.19-0.26-0.42-0.55-0.68-0.86c-3.78-4.51-11.35-14.72-25.84-6.23c-3.54,2.08,0.98-5.38,3.2-11.5
				C127.51,139.29,126.35,134.54,136.8,130.76z"/>
			<path class="st2" d="M139.46,147.53c-1.17,2.3-0.27,5.11,2.03,6.29c2.3,1.18,5.11,0.27,6.29-2.03c1.18-2.3,0.27-5.11-2.03-6.29
				C143.46,144.33,140.64,145.24,139.46,147.53z"/>
		</g>
	</g>
	<g>
		<g>
			<polygon class="st2" points="143.36,129.5 103.98,123.27 91.52,133.59 89.89,218.6 103.98,220.23 143.36,220.23 			"/>
			<polygon class="st3" points="64.6,129.5 64.61,220.23 103.98,220.23 103.98,123.27 			"/>
		</g>
		<g>
			<polygon class="st1" points="133.8,151.99 103.98,151.99 94.55,151.99 93.31,240.26 103.98,241.49 133.79,241.49 			"/>
			<rect x="74.17" y="151.99" class="st21" width="29.81" height="89.5"/>
		</g>
		<g>
			<path class="st21" d="M78.33,127.05c0-0.4-0.18-0.78-0.5-1.02c-0.32-0.24-0.72-0.33-1.11-0.23l-3.51,0.92
				c-0.5,0.13-0.84,0.58-0.84,1.09v109.14h5.97V127.05z"/>
		</g>
		<g>
			<path class="st1" d="M129.61,127.05c0-0.4,0.19-0.78,0.5-1.02c0.31-0.24,0.72-0.33,1.11-0.23l3.51,0.92
				c0.5,0.13,0.85,0.58,0.85,1.09v109.14h-5.97V127.05z"/>
		</g>
		<polygon class="st21" points="103.99,245.17 64.61,245.17 64.61,220.23 103.99,220.23 107.15,226.96 107.15,238.44 		"/>
		<rect x="103.99" y="220.23" class="st1" width="39.38" height="24.94"/>
		<path class="st19" d="M77.83,149.05H73.1c-1.19,0-2.16,0.97-2.16,2.16v5.27c0,1.19,0.97,2.16,2.16,2.16h4.73
			c1.19,0,2.16-0.97,2.16-2.16v-5.27C79.99,150.01,79.03,149.05,77.83,149.05z"/>
		<path class="st20" d="M134.71,149.05h-4.73c-1.19,0-2.16,0.97-2.16,2.16v5.27c0,1.19,0.97,2.16,2.16,2.16h4.73
			c1.19,0,2.16-0.97,2.16-2.16v-5.27C136.87,150.01,135.9,149.05,134.71,149.05z"/>
		<path class="st22" d="M121.57,200.4h-1.43c-0.25,0-0.45-0.2-0.45-0.45s0.2-0.45,0.45-0.45h1.43c0.11,0,0.22-0.01,0.32-0.03
			c0.24-0.04,0.48,0.13,0.52,0.38c0.04,0.25-0.13,0.48-0.38,0.52C121.88,200.39,121.73,200.4,121.57,200.4z M118.33,200.4h-1.82
			c-0.25,0-0.45-0.2-0.45-0.45s0.2-0.45,0.45-0.45h1.82c0.25,0,0.45,0.2,0.45,0.45S118.57,200.4,118.33,200.4z M114.68,200.4h-1.82
			c-0.25,0-0.45-0.2-0.45-0.45s0.2-0.45,0.45-0.45h1.82c0.25,0,0.45,0.2,0.45,0.45S114.93,200.4,114.68,200.4z M111.04,200.4h-1.82
			c-0.25,0-0.45-0.2-0.45-0.45s0.2-0.45,0.45-0.45h1.82c0.25,0,0.45,0.2,0.45,0.45S111.29,200.4,111.04,200.4z M107.4,200.4h-1.82
			c-0.25,0-0.45-0.2-0.45-0.45s0.2-0.45,0.45-0.45h1.82c0.25,0,0.45,0.2,0.45,0.45S107.65,200.4,107.4,200.4z M103.76,200.4h-1.82
			c-0.25,0-0.45-0.2-0.45-0.45s0.2-0.45,0.45-0.45h1.82c0.25,0,0.45,0.2,0.45,0.45S104.01,200.4,103.76,200.4z M100.12,200.4H98.3
			c-0.25,0-0.45-0.2-0.45-0.45s0.2-0.45,0.45-0.45h1.82c0.25,0,0.45,0.2,0.45,0.45S100.37,200.4,100.12,200.4z M96.47,200.4h-1.82
			c-0.25,0-0.45-0.2-0.45-0.45s0.2-0.45,0.45-0.45h1.82c0.25,0,0.45,0.2,0.45,0.45S96.73,200.4,96.47,200.4z M92.83,200.4h-1.82
			c-0.25,0-0.45-0.2-0.45-0.45s0.2-0.45,0.45-0.45h1.82c0.25,0,0.45,0.2,0.45,0.45S93.08,200.4,92.83,200.4z M89.19,200.4h-1.82
			c-0.25,0-0.45-0.2-0.45-0.45s0.2-0.45,0.45-0.45h1.82c0.25,0,0.45,0.2,0.45,0.45S89.44,200.4,89.19,200.4z M85.65,199.91
			c-0.09,0-0.19-0.03-0.27-0.09c-0.58-0.43-1-1.04-1.17-1.74c-0.06-0.24,0.09-0.49,0.33-0.55c0.25-0.05,0.49,0.09,0.55,0.33
			c0.12,0.49,0.41,0.92,0.82,1.22c0.2,0.15,0.25,0.43,0.1,0.63C85.93,199.85,85.79,199.91,85.65,199.91z M123.52,199.5
			c-0.1,0-0.21-0.04-0.3-0.11c-0.19-0.16-0.21-0.45-0.05-0.64c0.33-0.38,0.51-0.87,0.51-1.38c0-0.25,0.2-0.47,0.45-0.47
			c0.25,0,0.45,0.19,0.45,0.44v0.03c0,0.72-0.26,1.42-0.73,1.97C123.77,199.45,123.65,199.5,123.52,199.5z M84.59,196.62
			c-0.25,0-0.45-0.2-0.45-0.45v-1.82c0-0.25,0.2-0.45,0.45-0.45c0.25,0,0.45,0.2,0.45,0.45v1.82
			C85.04,196.41,84.84,196.62,84.59,196.62z M124.14,195.98c-0.25,0-0.45-0.2-0.45-0.45v-1.82c0-0.25,0.2-0.45,0.45-0.45
			c0.25,0,0.45,0.2,0.45,0.45v1.82C124.6,195.78,124.39,195.98,124.14,195.98z M84.59,192.97c-0.25,0-0.45-0.2-0.45-0.45v-1.82
			c0-0.25,0.2-0.45,0.45-0.45c0.25,0,0.45,0.2,0.45,0.45v1.82C85.04,192.77,84.84,192.97,84.59,192.97z M124.14,192.34
			c-0.25,0-0.45-0.2-0.45-0.45v-1.82c0-0.25,0.2-0.45,0.45-0.45c0.25,0,0.45,0.2,0.45,0.45v1.82
			C124.6,192.14,124.39,192.34,124.14,192.34z M84.59,189.33c-0.25,0-0.45-0.2-0.45-0.45v-1.82c0-0.25,0.2-0.45,0.45-0.45
			c0.25,0,0.45,0.2,0.45,0.45v1.82C85.04,189.13,84.84,189.33,84.59,189.33z M124.14,188.7c-0.25,0-0.45-0.2-0.45-0.45v-1.82
			c0-0.25,0.2-0.45,0.45-0.45c0.25,0,0.45,0.2,0.45,0.45v1.82C124.6,188.49,124.39,188.7,124.14,188.7z M84.59,185.69
			c-0.25,0-0.45-0.2-0.45-0.45v-1.82c0-0.25,0.2-0.45,0.45-0.45c0.25,0,0.45,0.2,0.45,0.45v1.82
			C85.04,185.49,84.84,185.69,84.59,185.69z M124.14,185.06c-0.25,0-0.45-0.2-0.45-0.45v-1.82c0-0.25,0.2-0.45,0.45-0.45
			c0.25,0,0.45,0.2,0.45,0.45v1.82C124.6,184.85,124.39,185.06,124.14,185.06z M84.59,182.05c-0.25,0-0.45-0.2-0.45-0.45v-1.82
			c0-0.25,0.2-0.45,0.45-0.45c0.25,0,0.45,0.2,0.45,0.45v1.82C85.04,181.85,84.84,182.05,84.59,182.05z M124.14,181.41
			c-0.25,0-0.45-0.2-0.45-0.45v-1.82c0-0.25,0.2-0.45,0.45-0.45c0.25,0,0.45,0.2,0.45,0.45v1.82
			C124.6,181.21,124.39,181.41,124.14,181.41z M84.59,178.41c-0.25,0-0.45-0.2-0.45-0.45v-1.82c0-0.25,0.2-0.45,0.45-0.45
			c0.25,0,0.45,0.2,0.45,0.45v1.82C85.04,178.2,84.84,178.41,84.59,178.41z M124.14,177.77c-0.25,0-0.45-0.2-0.45-0.45v-1.82
			c0-0.25,0.2-0.45,0.45-0.45c0.25,0,0.45,0.2,0.45,0.45v1.82C124.6,177.57,124.39,177.77,124.14,177.77z M84.59,174.77
			c-0.25,0-0.45-0.2-0.45-0.45v-1.82c0-0.25,0.2-0.45,0.45-0.45c0.25,0,0.45,0.2,0.45,0.45v1.82
			C85.04,174.56,84.84,174.77,84.59,174.77z M124.14,174.13c-0.25,0-0.45-0.2-0.45-0.45v-1.2c0-0.17-0.02-0.34-0.06-0.5
			c-0.06-0.24,0.09-0.49,0.33-0.55c0.25-0.06,0.49,0.09,0.55,0.33c0.06,0.24,0.09,0.48,0.09,0.72v1.2
			C124.6,173.93,124.39,174.13,124.14,174.13z M85.2,171.27c-0.1,0-0.21-0.04-0.29-0.11c-0.19-0.16-0.21-0.45-0.05-0.64
			c0.47-0.55,1.12-0.92,1.82-1.03c0.25-0.04,0.48,0.13,0.52,0.37c0.04,0.25-0.13,0.48-0.37,0.52c-0.5,0.08-0.95,0.34-1.28,0.73
			C85.46,171.22,85.33,171.27,85.2,171.27z M123.06,170.84c-0.09,0-0.18-0.03-0.27-0.09c-0.36-0.26-0.78-0.4-1.23-0.4h-0.22
			c-0.25,0-0.45-0.2-0.45-0.45c0-0.25,0.2-0.45,0.45-0.45h0.22c0.63,0,1.24,0.19,1.76,0.57c0.2,0.15,0.25,0.43,0.1,0.63
			C123.34,170.78,123.2,170.84,123.06,170.84z M119.52,170.36h-1.82c-0.25,0-0.45-0.2-0.45-0.45c0-0.25,0.2-0.45,0.45-0.45h1.82
			c0.25,0,0.45,0.2,0.45,0.45C119.98,170.16,119.78,170.36,119.52,170.36z M115.88,170.36h-1.82c-0.25,0-0.45-0.2-0.45-0.45
			c0-0.25,0.2-0.45,0.45-0.45h1.82c0.25,0,0.45,0.2,0.45,0.45C116.34,170.16,116.13,170.36,115.88,170.36z M112.24,170.36h-1.82
			c-0.25,0-0.45-0.2-0.45-0.45c0-0.25,0.2-0.45,0.45-0.45h1.82c0.25,0,0.45,0.2,0.45,0.45
			C112.69,170.16,112.49,170.36,112.24,170.36z M108.6,170.36h-1.82c-0.25,0-0.45-0.2-0.45-0.45c0-0.25,0.2-0.45,0.45-0.45h1.82
			c0.25,0,0.45,0.2,0.45,0.45C109.05,170.16,108.85,170.36,108.6,170.36z M104.96,170.36h-1.82c-0.25,0-0.45-0.2-0.45-0.45
			c0-0.25,0.2-0.45,0.45-0.45h1.82c0.25,0,0.45,0.2,0.45,0.45C105.41,170.16,105.21,170.36,104.96,170.36z M101.32,170.36H99.5
			c-0.25,0-0.45-0.2-0.45-0.45c0-0.25,0.2-0.45,0.45-0.45h1.82c0.25,0,0.45,0.2,0.45,0.45
			C101.77,170.16,101.57,170.36,101.32,170.36z M97.68,170.36h-1.82c-0.25,0-0.45-0.2-0.45-0.45c0-0.25,0.2-0.45,0.45-0.45h1.82
			c0.25,0,0.45,0.2,0.45,0.45C98.13,170.16,97.93,170.36,97.68,170.36z M94.03,170.36h-1.82c-0.25,0-0.45-0.2-0.45-0.45
			c0-0.25,0.2-0.45,0.45-0.45h1.82c0.25,0,0.45,0.2,0.45,0.45C94.49,170.16,94.28,170.36,94.03,170.36z M90.39,170.36h-1.82
			c-0.25,0-0.45-0.2-0.45-0.45c0-0.25,0.2-0.45,0.45-0.45h1.82c0.25,0,0.45,0.2,0.45,0.45C90.85,170.16,90.64,170.36,90.39,170.36z"
			/>
	</g>
	<g>
		<path class="st1" d="M143.36,240.2v15.61c0,32.54-1.37,65.07-4.12,97.5l-3.67,43.45h-18.34l-1.89-17.87
			c-2.9-27.4-4.35-54.94-4.35-82.49v-16.42c0-3.88-3.14-7.02-7.02-7.02l-7.07-2.08l0.84-28.61l6.23-2.08H143.36z"/>
		<path class="st22" d="M115.01,383.62c0-0.71,0.58-1.29,1.29-1.29h20.13c0.71,0,1.29,0.58,1.29,1.29v7.29
			c0,0.71-0.58,1.29-1.29,1.29H116.3c-0.71,0-1.29-0.58-1.29-1.29V383.62z"/>
		<path class="st21" d="M64.6,240.2v15.61c0,32.54,1.37,65.07,4.12,97.5l3.68,43.45h18.34l1.89-17.87
			c2.9-27.4,4.34-54.94,4.34-82.49v-16.42c0-3.88,3.14-7.02,7.02-7.02V240.2H64.6z"/>
		<path class="st22" d="M92.95,383.62c0-0.71-0.57-1.29-1.29-1.29H71.54c-0.71,0-1.29,0.58-1.29,1.29v7.29
			c0,0.71,0.58,1.29,1.29,1.29h20.13c0.71,0,1.29-0.58,1.29-1.29V383.62z"/>
	</g>
	<g>
		<path class="st0" d="M94.3,116.89v5.89c0,1.03-0.73,1.92-1.74,2.12c-2.29,0.46-4.19,2.06-5.02,4.25
			c-0.83,2.19-0.48,4.65,0.93,6.51c3.67,4.86,9.41,7.72,15.51,7.72l4.67-16.36h0.01l-4.67-10.13H94.3z"/>
		<path class="st5" d="M119.49,135.66c1.41-1.86,1.76-4.33,0.93-6.51c-0.83-2.19-2.73-3.79-5.02-4.25c-1-0.2-1.73-1.08-1.73-2.11
			v-5.9h-9.68v26.49C110.08,143.38,115.82,140.52,119.49,135.66z"/>
	</g>
	<g>
		<g>
			<path class="st20" d="M138.66,412.14l-16.28-5.72l0.54-4.92l-0.54-9.7c0,0,12.76-3.36,15.05,4.16
				c2.28,7.52,5.51,11.88,5.51,11.88L138.66,412.14z"/>
			<g>
				<path class="st23" d="M115.11,412.14c0,0-2.03,1.39-1.34,5.08c0.32,1.34,4.16,0.92,12.08,4.61c7.92,3.69,18.51,6.81,30.32,0.5
					c1.23-0.64,2.19-5.62-2.09-5.99C149.81,415.96,115.11,412.14,115.11,412.14z"/>
			</g>
			<g>
				<g>
					<path class="st19" d="M116.23,404.76c0,0-3.19,3.02-1.71,7.97c4.92,1.5,3.41,0.87,8.28,3.17c4.87,2.3,24.28,8.78,32.78,1.67
						c0.88-0.88,1.63-6.79-6.72-8.64c-1.81-0.4-1.84-0.2-4.46-0.61c-7.21-1.36-6.72-15.35-8.06-17.27
						c-2.25-0.64-9.95-1.63-10.98,3.64C123.54,404.07,116.4,403.05,116.23,404.76z"/>
				</g>
			</g>
			<path class="st20" d="M132.08,412.14l-17.03-5.72l1.28-4.92l-0.54-9.7c0,0,13.97-2.42,16.25,5.1c2.28,7.52,6.58,11.82,6.58,11.82
				L132.08,412.14z"/>
			<path class="st24" d="M131.7,406.42c0,0.72,0.58,1.3,1.3,1.3c0.72,0,1.3-0.58,1.3-1.3c0-0.72-0.58-1.3-1.3-1.3
				C132.28,405.11,131.7,405.7,131.7,406.42z"/>
			<path class="st24" d="M129.47,402.32c0,0.72,0.58,1.3,1.3,1.3c0.72,0,1.3-0.58,1.3-1.3s-0.58-1.3-1.3-1.3
				C130.06,401.01,129.47,401.6,129.47,402.32z"/>
			<path class="st24" d="M127.25,398.21c0,0.72,0.58,1.3,1.3,1.3c0.72,0,1.3-0.58,1.3-1.3c0-0.72-0.58-1.3-1.3-1.3
				C127.83,396.91,127.25,397.49,127.25,398.21z"/>
			<path class="st23" d="M133,406.74c-0.09,0-0.19-0.04-0.25-0.12c-0.11-0.14-0.09-0.34,0.05-0.45c0.19-0.15,4.6-3.61,8.61-1.33
				c0.15,0.09,0.21,0.28,0.12,0.44c-0.09,0.15-0.28,0.21-0.44,0.12c-3.63-2.06-7.85,1.24-7.89,1.28
				C133.14,406.72,133.07,406.74,133,406.74z"/>
			<path class="st23" d="M130.78,402.64c-0.09,0-0.18-0.04-0.24-0.11c-0.12-0.13-0.11-0.33,0.02-0.45c0.04-0.04,4.49-3.94,9.08-0.85
				c0.15,0.1,0.18,0.3,0.09,0.44c-0.1,0.15-0.3,0.19-0.44,0.09c-4.18-2.82-8.26,0.76-8.3,0.79
				C130.93,402.61,130.85,402.64,130.78,402.64z"/>
			<path class="st23" d="M128.55,398.53c-0.11,0-0.22-0.06-0.28-0.16c-0.09-0.15-0.03-0.35,0.12-0.44
				c0.27-0.15,6.66-3.74,10.02,0.07c0.12,0.13,0.1,0.33-0.03,0.45c-0.13,0.12-0.33,0.1-0.45-0.03c-3.01-3.42-9.16,0.03-9.22,0.07
				C128.66,398.52,128.6,398.53,128.55,398.53z"/>
		</g>
		<g>
			<path class="st20" d="M69.31,412.14l16.28-5.72l-0.54-4.92l0.54-9.7c0,0-12.76-3.36-15.05,4.16c-2.28,7.52-5.51,11.88-5.51,11.88
				L69.31,412.14z"/>
			<g>
				<path class="st23" d="M92.86,412.14c0,0,2.03,1.39,1.34,5.08c-0.32,1.34-4.16,0.92-12.08,4.61c-7.92,3.69-18.51,6.81-30.32,0.5
					c-1.23-0.64-2.19-5.62,2.08-5.99C58.16,415.96,92.86,412.14,92.86,412.14z"/>
			</g>
			<g>
				<g>
					<path class="st19" d="M91.73,404.76c0,0,3.19,3.02,1.71,7.97c-4.92,1.5-3.41,0.87-8.28,3.17c-4.87,2.3-24.28,8.78-32.78,1.67
						c-0.88-0.88-1.63-6.79,6.72-8.64c1.81-0.4,1.84-0.2,4.46-0.61c7.21-1.36,6.72-15.35,8.06-17.27c2.25-0.64,9.95-1.63,10.98,3.64
						C84.42,404.07,91.57,403.05,91.73,404.76z"/>
				</g>
			</g>
			<path class="st20" d="M75.89,412.14l17.03-5.72l-1.28-4.92l0.54-9.7c0,0-13.97-2.42-16.25,5.1c-2.28,7.52-6.58,11.82-6.58,11.82
				L75.89,412.14z"/>
			<path class="st24" d="M76.27,406.42c0,0.72-0.58,1.3-1.3,1.3c-0.72,0-1.3-0.58-1.3-1.3c0-0.72,0.58-1.3,1.3-1.3
				C75.68,405.11,76.27,405.7,76.27,406.42z"/>
			<path class="st24" d="M78.49,402.32c0,0.72-0.58,1.3-1.3,1.3c-0.72,0-1.3-0.58-1.3-1.3s0.58-1.3,1.3-1.3
				C77.91,401.01,78.49,401.6,78.49,402.32z"/>
			<path class="st24" d="M80.72,398.21c0,0.72-0.58,1.3-1.3,1.3c-0.72,0-1.3-0.58-1.3-1.3c0-0.72,0.58-1.3,1.3-1.3
				C80.14,396.91,80.72,397.49,80.72,398.21z"/>
			<path class="st23" d="M74.96,406.74c0.09,0,0.19-0.04,0.25-0.12c0.11-0.14,0.09-0.34-0.05-0.45c-0.19-0.15-4.6-3.61-8.61-1.33
				c-0.15,0.09-0.21,0.28-0.12,0.44c0.09,0.15,0.28,0.21,0.44,0.12c3.63-2.06,7.85,1.24,7.89,1.28
				C74.82,406.72,74.89,406.74,74.96,406.74z"/>
			<path class="st23" d="M77.19,402.64c0.09,0,0.18-0.04,0.24-0.11c0.12-0.13,0.11-0.33-0.02-0.45c-0.04-0.04-4.49-3.94-9.09-0.85
				c-0.15,0.1-0.18,0.3-0.09,0.44c0.1,0.15,0.3,0.19,0.44,0.09c4.18-2.82,8.26,0.76,8.3,0.79
				C77.04,402.61,77.11,402.64,77.19,402.64z"/>
			<path class="st23" d="M79.42,398.53c0.11,0,0.22-0.06,0.28-0.16c0.09-0.15,0.03-0.35-0.12-0.44c-0.27-0.15-6.66-3.74-10.02,0.07
				c-0.12,0.13-0.1,0.33,0.03,0.45c0.13,0.12,0.33,0.1,0.45-0.03c3.01-3.42,9.16,0.03,9.22,0.07
				C79.31,398.52,79.36,398.53,79.42,398.53z"/>
		</g>
	</g>
	<g>
		<path class="st0" d="M79.82,170.39c-0.45,0.39,0.18-1.71-0.36-1.44c-8.01,3.98-8.22,5.87-10.57,9.91c-0.93,1.6-8.8,6.74-8.8,6.74
			s6.28,9.45,7.91,11.65c1.97-2.02,8.23-6.07,9.43-5.64c1.2,0.43,5.03,0.69,9.28-1.06c1.67-0.69,2.99-1.63,4-2.64L79.82,170.39z"/>
		<g>
			<g>
				<path class="st3" d="M37.72,196.49c-4.54,3.21-5.63,9.49-2.42,14.03c3.2,4.54,9.48,5.62,14.03,2.42l24.06-16.99L61.79,179.5
					L37.72,196.49z"/>
			</g>
			<path class="st3" d="M41.69,202.11c1.44-1.01,3.43-0.67,4.44,0.76c1.01,1.44,0.67,3.43-0.76,4.44c-1.44,1.01-3.43,0.67-4.44-0.77
				C39.91,205.12,40.25,203.13,41.69,202.11z"/>
		</g>
	</g>
	<path class="st0" d="M117.13,187.93c0,0,0-0.01,0-0.01c0.71-0.09,0.22-0.6,0.22-0.6l-0.18-0.03c-1.25-0.19-2.12-1.35-1.93-2.6
		c0.14-0.93,0.82-1.65,1.67-1.88c0.62-0.36,0.49-0.95,0.29-1.37c-0.13-0.15-0.24-0.32-0.32-0.5c0,0,0-0.01,0-0.01
		c-0.18-0.39-0.25-0.83-0.18-1.28c0.18-1.25,1.35-2.12,2.6-1.93c0,0,5.35-0.07,6.45,0.06c0.2,0.02,0.41,0.05,0.62,0.09
		c0.61,0.07,0.49,0.33,0.61,0.07c0.16-0.35-2.35-4.95-1.39-9.48c0.23-1.1,1.17-1.9,2.28-1.76c0.01,0,0.02,0,0.04,0.01
		c1.09,0.16,1.8,1.17,1.72,2.28c-0.09,1.24,0.16,1.97,0.84,3.05c0.19,0.3,0.49,0.53,0.75,0.85c1.01,1.23,5.23,5.34,6.43,6.43l0,0
		c0.61,0.46,1.07,1.09,1.9,1.97c2.08,2.2,16.03,3.74,16.03,3.74s-1.54,10.33-1.97,13.23c-9.79-1.72-18.27-4.82-22.06-2.98
		c-2.17,1.05-5,4.19-8.45,3.41l-5.72-0.85c-1.25-0.19-2.12-1.35-1.93-2.61c0.12-0.79,0.62-1.42,1.29-1.74c0,0,0,0,0,0
		c0.74-0.56,0.29-0.96,0.29-0.96l-0.34-0.05c-1.25-0.19-2.12-1.35-1.93-2.61C114.96,188.71,115.98,187.89,117.13,187.93z"/>
	<g>
		<g>
			<path class="st2" d="M187.99,197.72c-0.77,5.5-5.85,9.35-11.36,8.58l-29.18-4.06l2.78-19.94l29.17,4.06
				C184.91,187.13,188.76,192.21,187.99,197.72z"/>
		</g>
		<path class="st2" d="M178.46,193.18c-1.74-0.24-3.35,0.97-3.59,2.72c-0.24,1.74,0.97,3.35,2.71,3.59
			c1.74,0.24,3.35-0.98,3.59-2.71C181.42,195.03,180.2,193.42,178.46,193.18z"/>
	</g>
	<g>
		<path class="st0" d="M79.44,76.99l-3.5-2.21c-0.6-0.38-1.36-0.49-2.06-0.3c-0.7,0.19-1.28,0.66-1.57,1.28
			c-1.5,3.22-1.7,6.84-0.58,10.19l0.82,2.45c0.4,3.25,0.8,6.05,2.65,7.57l0.53,0.22c0.74,0.31,1.61,0.2,2.23-0.28l2.55-1.98
			L79.44,76.99z"/>
		<path class="st5" d="M135.57,75.76c-0.29-0.62-0.86-1.09-1.57-1.28c-0.7-0.19-1.46-0.08-2.07,0.3l-3.5,2.21l-1.06,16.94l2.55,1.98
			c0.62,0.48,1.49,0.59,2.23,0.28l0.53-0.22c1.85-1.52,2.24-4.33,2.65-7.57l0.82-2.45C137.27,82.6,137.07,78.99,135.57,75.76z"/>
		<g>
			<g>
				<path class="st4" d="M104.02,39.79h-16.5c-3.34,0-9.43,1.89-10.92,4.87l-2.04,5.62c-2.07,4.13-0.87,8.67-0.87,13.29l1.6,20.79
					c0,7.38,2.16,16.19,6.2,22.36l2.43,3.7c4.08,6.23,7.84,8.39,15.29,8.39h4.82l18.56-70.75L104.02,39.79z"/>
				<path class="st0" d="M133.48,50.28l-2.81-5.62c-1.49-2.98-6.81-4.87-10.15-4.87h-16.51v79.02h4.82c7.45,0,11.21-2.16,15.29-8.39
					l2.43-3.7c4.05-6.17,6.2-14.99,6.2-22.36l1.6-20.79C134.35,58.95,135.54,54.41,133.48,50.28z"/>
			</g>
		</g>
		<g>
			<g>
				<path class="st12" d="M92.28,79.3c0,1.67-1.35,3.03-3.03,3.03c-1.67,0-3.02-1.35-3.02-3.03c0-1.67,1.35-3.03,3.02-3.03
					C90.93,76.27,92.28,77.63,92.28,79.3z"/>
				<path class="st11" d="M89.37,78.43c0,0.53-0.43,0.97-0.97,0.97c-0.53,0-0.97-0.43-0.97-0.97c0-0.53,0.43-0.97,0.97-0.97
					C88.94,77.47,89.37,77.9,89.37,78.43z"/>
			</g>
			<g>
				<path class="st12" d="M121.41,79.3c0,1.67-1.36,3.03-3.03,3.03c-1.67,0-3.03-1.35-3.03-3.03c0-1.67,1.36-3.03,3.03-3.03
					C120.06,76.27,121.41,77.63,121.41,79.3z"/>
				<path class="st11" d="M118.5,78.43c0,0.53-0.43,0.97-0.96,0.97c-0.54,0-0.97-0.43-0.97-0.97c0-0.53,0.43-0.97,0.97-0.97
					C118.07,77.47,118.5,77.9,118.5,78.43z"/>
			</g>
		</g>
		<path class="st23" d="M127.64,68.28c-0.06-0.19-0.2-0.36-0.38-0.45c0,0-2.93-1.71-4-2.07c-1.85-0.63-4.09-0.82-6.7-0.11
			c-1.3,0.35-5.18,1.43-5.18,1.43c-0.41,0.12-0.76,0.43-0.91,0.84c-0.15,0.42-0.11,0.88,0.12,1.26l0.43,0.7
			c0.39,0.64,1.18,0.89,1.86,0.59l2.18-0.99c3.27-1.48,6.99-1.56,10.32-0.22l0.87,0.35c0.44,0.18,0.95-0.01,1.18-0.45l0.15-0.29
			C127.68,68.69,127.7,68.48,127.64,68.28z"/>
		<path class="st23" d="M97.29,69.18c0.23-0.38,0.28-0.84,0.12-1.26c-0.16-0.41-0.5-0.73-0.91-0.84c0,0-3.88-1.08-5.17-1.43
			c-2.61-0.7-4.85-0.52-6.7,0.11c-1.07,0.36-4,2.07-4,2.07c-0.18,0.09-0.31,0.26-0.37,0.45c-0.06,0.2-0.04,0.41,0.05,0.59l0.15,0.29
			c0.23,0.44,0.73,0.63,1.18,0.45l0.87-0.35c3.32-1.34,7.05-1.26,10.32,0.22L95,70.47c0.67,0.3,1.46,0.06,1.86-0.59L97.29,69.18z"/>
		<path class="st4" d="M101.04,103.98c-0.89-0.36-2.25-1.22-2.25-2.18c0-0.45,0-0.9,0-1.23c0-0.07-3.05,1.81-3.05,1.81
			c-0.6-0.24-1.28,0.05-1.52,0.65c-0.24,0.6,0.05,1.28,0.65,1.52l0.27,0.11c2.86,1.15,5.87,1.73,8.87,1.73V105
			C103.65,105,102.18,104.45,101.04,103.98z"/>
		<path class="st25" d="M105.85,30.3c0.45-0.78,0.71-1.35,0.71-1.35s-6.14-0.28-12.88-6.23c-0.11-0.1-0.26-0.12-0.39-0.07
			c-0.13,0.05-0.22,0.18-0.23,0.32c-0.1,1.71,0,3.79,1.03,6.19c0.02,0.06,0.02,0.13-0.02,0.19c-0.04,0.06-0.1,0.08-0.17,0.08
			c-3.26-0.42-7.37-5.12-9.11-7.28c-0.11-0.13-0.29-0.18-0.44-0.11c-0.15,0.07-0.24,0.23-0.22,0.4c0.4,2.74,1.04,5.07,1.8,7.03
			c0.03,0.07,0.01,0.15-0.04,0.2c-0.05,0.05-0.13,0.07-0.2,0.04c-2.82-1.02-5.13-2.72-6.86-4.41c-0.12-0.11-0.28-0.16-0.44-0.13
			c-0.16,0.03-0.3,0.14-0.36,0.29c-0.81,1.93-3.08,7.96-4.33,17.56c-1.24,9.44,0.05,22.96,1.03,34.89c0,0.01,0.01,0.02,0.01,0.04
			l1.89,20.05c0.48,5.31,1.74,10.53,3.75,15.47l0.21,0.51c1.65,4.09,5.12,6.81,8.81,9.22c6.42,4.19,14.63,4.19,14.63,4.19l4.66-1.32
			l-0.79-24.4l-3.87-1.13c-3.57,0.06-7.13,0.4-10.65,1.01c-3.31,0.58-6.69,0.69-10.04,0.32c-2.62-0.28-4.72-2.29-5.13-4.88
			l-2.03-12.78c-0.87-5.49-1.09-11.19-0.62-16.72c0.41-4.73,1.02-9.37,1.54-12.28c0.3-1.67,1.87-2.81,3.55-2.56
			c4.2,0.61,12.79,1.61,23.41,1.61l2.39-3.34l-0.46-20.52L105.85,30.3z"/>
		<path class="st23" d="M133.17,40.71c-5.23-9.84-19.28-12.9-29.15-12.02v25.58c10.63,0,19.21-1.01,23.41-1.61
			c1.68-0.24,3.25,0.89,3.55,2.56c0.52,2.89,1.12,7.48,1.53,12.17c0.49,5.64,0.27,11.28-0.62,16.87l-2.04,12.75
			c-0.41,2.6-2.51,4.6-5.13,4.88c-3.35,0.37-6.73,0.26-10.04-0.32c-3.52-0.61-7.08-0.95-10.65-1.01v26.85c0,0,8.21,0,14.63-4.19
			c3.69-2.41,7.16-5.14,8.81-9.22l0.21-0.51c2-4.94,3.26-10.16,3.74-15.47l1.93-20.06c0-0.01,0.01-0.02,0.01-0.03
			c0.01-0.13,0.02-0.27,0.03-0.4V77.5C134.48,64.17,135.81,45.69,133.17,40.71z"/>
		<g>
			<path class="st4" d="M98.86,97.71c-0.1,0.67-0.16,1.13-0.19,1.35c-0.45,0.22-0.75,0.59-0.75,1.01c0,0.67,0.76,1.22,1.71,1.22
				c0.14,0,0.29-0.01,0.42-0.04c0.34-0.06,0.69-0.04,1.01,0.06c0.82,0.25,1.79,0.39,2.84,0.39c0.04,0,0.07,0,0.1,0l1.68-3.46
				L98.86,97.71z"/>
			<path class="st0" d="M109.35,99.06c-0.03-0.22-0.1-0.68-0.19-1.35h-5.15v3.99c0.04,0,0.07,0,0.1,0c1.04,0,2.02-0.14,2.84-0.39
				c0.33-0.1,0.68-0.12,1.02-0.06c0.13,0.03,0.28,0.04,0.43,0.04c0.95,0,1.71-0.55,1.71-1.22C110.1,99.65,109.81,99.28,109.35,99.06
				z"/>
		</g>
		<path class="st26" d="M104.01,111.37c-3.01,0-6.01-0.58-8.87-1.73l-0.27-0.11c-0.6-0.24-0.89-0.93-0.65-1.52
			c0.24-0.6,0.92-0.89,1.52-0.65c0,0,0.2,0.08,0.27,0.11c5.35,1.7,10.82,1.85,16,0l0.27-0.11c0.6-0.24,1.28,0.05,1.53,0.65
			c0.24,0.6-0.05,1.28-0.65,1.52l-0.27,0.11C110.03,110.79,107.02,111.37,104.01,111.37z"/>
		<g>
			<path class="st27" d="M104.01,72.68h-1.9c-0.77-0.78-4.03-3.46-13.17-4.26c-0.59-0.05-1.21-0.07-1.83-0.07
				c-5.5,0-10.16,1.9-10.97,2.25l-2.42-0.06c-0.13,0-0.29,0.05-0.39,0.15c-0.1,0.1-0.16,0.23-0.16,0.37v3.64
				c0,0.29,0.24,0.52,0.53,0.52h1.46c0.28,2.3,1.71,11.95,11.62,11.95c9.4,0,14.33-4.76,15.83-9.5c0.16-0.14,0.8-0.3,1.39-0.35
				V72.68z M98.79,81.64c-2.45,2.38-5.75,4.48-12,4.48c-2.11,0-4.08-0.74-5.38-1.67c-3.45-2.67-4.73-6.88-3.85-10.49
				c0.81-3.34,5.55-4.23,6.26-4.34c1.05-0.14,2.15-0.23,3.29-0.23c0.59,0,1.17,0.02,1.74,0.07c5.18,0.45,8.36,1.53,10.23,2.46
				C100.75,72.86,103.91,76.39,98.79,81.64z"/>
			<path class="st28" d="M104.02,77.3c0.6,0.06,1.23,0.22,1.39,0.35c1.5,4.74,6.42,9.5,15.83,9.5c9.91,0,11.34-9.64,11.62-11.95
				h1.46c0.29,0,0.53-0.23,0.53-0.52v-3.64c0-0.14-0.06-0.27-0.16-0.37c-0.1-0.1-0.25-0.14-0.39-0.15l-2.42,0.06
				c-0.81-0.35-5.46-2.25-10.97-2.25c-0.62,0-1.23,0.02-1.83,0.07c-9.13,0.8-12.4,3.48-13.17,4.26h-1.91V77.3z M108.94,71.92
				c1.88-0.93,5.06-2.01,10.24-2.46c0.56-0.05,1.15-0.07,1.73-0.07c1.14,0,2.25,0.09,3.29,0.23c0.71,0.11,5.44,1,6.26,4.34
				c0.88,3.61-0.4,7.81-3.85,10.49c-1.3,0.93-3.27,1.67-5.38,1.67c-6.25,0-9.55-2.1-12-4.48C104.12,76.39,107.28,72.86,108.94,71.92
				z"/>
		</g>
	</g>
	<g>
		<g>
			<path class="st11" d="M77.86,145.67c-1.2,0-2.19,0.98-2.19,2.19v72.04c0,1.2,0.98,2.19,2.19,2.19h26.12l16.09-59.62l-16.09-16.78
				H77.86z"/>
		</g>
		<path class="st29" d="M132.36,147.86c0-1.2-0.98-2.19-2.19-2.19h-26.2v76.41h26.2c1.2,0,2.19-0.98,2.19-2.19V147.86z"/>
	</g>
	<path class="st0" d="M130.05,196.99l-8.06-1.45c-1.32-0.24-2.2-1.5-1.97-2.83c0.24-1.32,1.5-2.2,2.83-1.97l3.86,0.69
		c1.23-0.63,0.19-1.38,0.19-1.38l-6.04-1.08c-1.32-0.24-2.2-1.5-1.97-2.83c0.24-1.32,1.51-2.2,2.83-1.97l5.75,1.03
		c1.24-0.51,0.25-1.37,0.25-1.37l-6.73-1.21c-1.32-0.24-2.21-1.5-1.97-2.83c0.24-1.32,1.51-2.21,2.83-1.97l6.59,1.18
		c1.52-0.58,0.07-1.4,0.07-1.4l-4.98-0.89c-1.32-0.24-2.2-1.5-1.97-2.83c0.24-1.32,1.22-2.26,4.55-1.66l8.3,1.49
		C142.65,175.21,139.54,198.69,130.05,196.99z"/>
	<g>
		<path class="st19" d="M103.86,234.72H64.47c-0.51,0-0.93,0.41-0.93,0.93v5.51c0,0.62,0.5,1.12,1.12,1.12h39.2l2.23-3.48
			L103.86,234.72z"/>
		<path class="st20" d="M143.25,234.72h-39.39v7.56h39.2c0.62,0,1.12-0.5,1.12-1.12v-5.51
			C144.18,235.13,143.76,234.72,143.25,234.72z"/>
	</g>
	<g>
		<path class="st19" d="M69.55,238.6v16.06c0,2.14,1.75,3.89,3.89,3.89H86.3c2.14,0,3.89-1.75,3.89-3.89V238.6H69.55z"/>
		<g>
			<rect x="82.79" y="238.26" class="st16" width="0.96" height="6.77"/>
			<path class="st16" d="M85.6,225.37c0,0.93-1.05,1.68-2.34,1.68c-1.29,0-2.34-0.75-2.34-1.68c0-0.93,1.05-1.68,2.34-1.68
				C84.55,223.69,85.6,224.44,85.6,225.37z"/>
			<polygon class="st3" points="84.47,225.26 82.06,225.26 80.92,225.26 80.92,240.3 82.06,242.05 84.47,242.05 85.6,240.3 
				85.6,225.26 			"/>
			<rect x="82.06" y="225.26" class="st2" width="2.41" height="16.8"/>
		</g>
		<g>
			<path class="st16" d="M77.83,230.63c0,0.73-0.83,1.33-1.85,1.33c-1.02,0-1.85-0.6-1.85-1.33c0-0.73,0.83-1.33,1.85-1.33
				C77.01,229.3,77.83,229.9,77.83,230.63z"/>
			<polygon class="st3" points="76.94,230.54 75.03,230.54 74.14,230.54 74.14,242.41 75.03,243.8 76.94,243.8 77.83,242.41 
				77.83,230.54 			"/>
			<rect x="75.03" y="230.54" class="st2" width="1.9" height="13.26"/>
		</g>
		<path class="st18" d="M69.55,243.8v10.85c0,2.14,1.75,3.89,3.89,3.89H86.3c2.14,0,3.89-1.75,3.89-3.89V243.8H69.55z"/>
	</g>
	<g>
		<path class="st20" d="M107.91,238.63v16.05c0,2.14,1.75,3.89,3.89,3.89h24.89c2.14,0,3.89-1.75,3.89-3.89v-16.05H107.91z"/>
		<g>
			<path class="st16" d="M116.82,253.55c0-0.82,0.67-1.48,1.49-1.49l1.12-11.04l-1.12-8.26c-0.41,0-0.74-0.33-0.74-0.74
				c0-0.31,0.19-0.57,0.46-0.68c0.01-0.01,0.02-0.01,0.03-0.01c0.08-0.03,0.16-0.05,0.25-0.05l0.67-0.85l-0.67-1l-2.23-1.24v-4.34
				c-1.33,0.82-2.23,2.37-2.23,4.14c0,2.09,1.25,3.86,2.99,4.51c-0.01,0.06-0.02,0.12-0.02,0.19l-0.13,3.87l0,0l-0.01,0.23
				l-0.04,1.14l0,0l-0.57,17.21c0,0.78,0.66,1.4,1.49,1.4l0.74,0v-1.48C117.49,255.03,116.82,254.37,116.82,253.55z"/>
			<g>
				<path class="st17" d="M122.77,227.98c0-1.77-0.9-3.31-2.23-4.14l0,4.34l-2.23,1.25l0,0v1.84c0,0,0,0,0,0l0,0
					c0.1,0,0.2,0.02,0.29,0.06c0.07,0.03,0.13,0.08,0.18,0.13c0.02,0.01,0.04,0.02,0.05,0.03c0.13,0.13,0.22,0.32,0.22,0.53
					c0,0.41-0.33,0.74-0.74,0.74c-0.01,0-0.01,0-0.02,0c0,0,0.01,0,0.01,0v19.31c-0.15,0-0.28,0.04-0.42,0.09
					c0.13-0.04,0.27-0.09,0.42-0.09c0.82,0,1.49,0.67,1.49,1.49c0,0.82-0.67,1.49-1.49,1.49c-0.05,0-0.1-0.02-0.15-0.03
					c0.05,0,0.09,0.03,0.15,0.03v1.48l-0.74,0l1.48,0c0.82,0,1.49-0.63,1.49-1.4l-0.59-17.69l-0.16-4.76c0-0.06-0.01-0.12-0.02-0.19
					C121.52,231.84,122.77,230.07,122.77,227.98z"/>
			</g>
		</g>
		<g>
			<polygon class="st16" points="128.76,240.74 127.59,240.74 127.59,249.47 127.07,249.47 127.8,253.16 128.54,253.16 
				129.28,249.47 128.76,249.47 			"/>
			<path class="st2" d="M128.76,241.11c0.67-0.12,1.17-0.57,1.19-1.57c0.06-3.03,0.28-6.06,0.45-9.09c0.07-1.18-0.81-2.18-1.97-2.19
				c-0.17,0-0.35,0-0.52,0c-1.16,0.01-2.04,1.01-1.97,2.19c0.18,3.03,0.39,6.06,0.45,9.09c0.02,1,0.52,1.45,1.19,1.57v0.01
				L128.76,241.11L128.76,241.11z"/>
			<path class="st3" d="M127.59,241.12h0.6v-12.86c-0.09,0-0.18,0-0.27,0c-1.16,0.01-2.04,1.01-1.97,2.19
				c0.18,3.03,0.39,6.06,0.45,9.09C126.42,240.54,126.92,240.99,127.59,241.12L127.59,241.12z"/>
		</g>
		<path class="st19" d="M107.91,243.83v10.85c0,2.14,1.75,3.89,3.89,3.89h24.89c2.14,0,3.89-1.75,3.89-3.89v-10.85H107.91z"/>
	</g>
</g>
</svg>
